<?xml version="1.0" encoding="UTF-8" standalone="no"?>
<!-- Created with Inkscape (http://www.inkscape.org/) -->

<svg
   version="1.1"
   id="svg1"
   width="577.59998"
   height="577.59998"
   viewBox="0 0 577.59997 577.59998"
   sodipodi:docname="icon.svg"
   inkscape:export-filename="icon.png"
   inkscape:export-xdpi="100.87141"
   inkscape:export-ydpi="100.87141"
   inkscape:version="1.4.2 (ebf0e940d0, 2025-05-08)"
   xmlns:inkscape="http://www.inkscape.org/namespaces/inkscape"
   xmlns:sodipodi="http://sodipodi.sourceforge.net/DTD/sodipodi-0.dtd"
   xmlns="http://www.w3.org/2000/svg"
   xmlns:svg="http://www.w3.org/2000/svg">
  <sodipodi:namedview
     id="namedview1"
     pagecolor="#ffffff"
     bordercolor="#000000"
     borderopacity="0.25"
     inkscape:showpageshadow="2"
     inkscape:pageopacity="0.0"
     inkscape:pagecheckerboard="0"
     inkscape:deskcolor="#d1d1d1"
     inkscape:zoom="1.4542937"
     inkscape:cx="238.25999"
     inkscape:cy="288.45618"
     inkscape:window-width="1878"
     inkscape:window-height="1163"
     inkscape:window-x="42"
     inkscape:window-y="1080"
     inkscape:window-maximized="1"
     inkscape:current-layer="svg1" />
  <defs
     id="defs1" />
  <g
     id="g1"
     transform="translate(50.87466)">
    <g
       id="group-R5">
      <path
         id="path2"
         d="m 1784.28,20 c 1740.36,844.84 1764.6,2238.83 1764.6,2238.83 v 1512.26 c 0,0 -531.5,291.96 -897.46,403.5 -364.14,111.02 -586.92,137.44 -868.5,137.44 -281.56,0 -499.57,-32.34 -865.451,-137.44 C 540.047,4066.19 20,3771.09 20,3771.09 V 2258.83 C 20,2258.83 44.4023,864.84 1784.77,20 h -0.49"
         style="fill:#bf8d1e;fill-opacity:1;fill-rule:nonzero;stroke:none"
         transform="matrix(0.13333333,0,0,-0.13333333,0,577.6)" />
      <path
         id="path3"
         d="m 1784.28,20 c 1740.36,844.84 1764.6,2238.83 1764.6,2238.83 v 1512.26 c 0,0 -531.5,291.96 -897.46,403.5 -364.14,111.02 -586.92,137.44 -868.5,137.44 -281.56,0 -499.57,-32.34 -865.451,-137.44 C 540.047,4066.19 20,3771.09 20,3771.09 V 2258.83 C 20,2258.83 44.4023,864.84 1784.77,20 Z"
         style="fill:none;stroke:#231f20;stroke-width:40;stroke-linecap:butt;stroke-linejoin:round;stroke-miterlimit:4;stroke-dasharray:none;stroke-opacity:1"
         transform="matrix(0.13333333,0,0,-0.13333333,0,577.6)" />
      <path
         id="path4"
         d="M 1783.9,146.422 C 3429.85,945.43 3452.78,2263.79 3452.78,2263.79 v 1430.23 c 0,0 -502.67,276.12 -848.79,381.62 -344.37,104.99 -555.07,129.99 -821.36,129.99 -266.31,0 -472.49,-30.59 -818.509,-129.99 C 607.168,3973.11 115.332,3694.02 115.332,3694.02 V 2263.79 c 0,0 23.066,-1318.36 1669.028,-2117.368 h -0.46"
         style="fill:#ffffff;fill-opacity:1;fill-rule:nonzero;stroke:none"
         transform="matrix(0.13333333,0,0,-0.13333333,0,577.6)" />
      <path
         id="path5"
         d="M 1783.9,146.422 C 3429.85,945.43 3452.78,2263.79 3452.78,2263.79 v 1430.23 c 0,0 -502.67,276.12 -848.79,381.62 -344.37,104.99 -555.07,129.99 -821.36,129.99 -266.31,0 -472.49,-30.59 -818.509,-129.99 C 607.168,3973.11 115.332,3694.02 115.332,3694.02 V 2263.79 c 0,0 23.066,-1318.36 1669.028,-2117.368 z"
         style="fill:none;stroke:#231f20;stroke-width:40;stroke-linecap:butt;stroke-linejoin:miter;stroke-miterlimit:4;stroke-dasharray:none;stroke-opacity:1"
         transform="matrix(0.13333333,0,0,-0.13333333,0,577.6)" />
      <path
         id="path6"
         d="M 3188.14,1415.03 127.52,3701.37 c -8.528,-4.75 -13.106,-7.35 -13.106,-7.35 V 2263.79 c 0,0 23.066,-1318.231 1668.796,-2117.251 766.39,372.09 1180.82,856.761 1404.93,1268.491 z M 1783.45,146.422 c -0.08,0.039 -0.16,0.078 -0.24,0.117 -0.08,-0.039 -0.15,-0.078 -0.23,-0.117 h 0.47"
         style="fill:#231f20;fill-opacity:1;fill-rule:nonzero;stroke:none"
         transform="matrix(0.13333333,0,0,-0.13333333,0,577.6)" />
      <path
         id="path7"
         d="M 69.2969,3755.25 3239.06,1366.66"
         style="fill:none;stroke:#bf8d1e;stroke-width:69.6547;stroke-linecap:butt;stroke-linejoin:round;stroke-miterlimit:4;stroke-dasharray:none;stroke-opacity:1"
         transform="matrix(0.13333333,0,0,-0.13333333,0,577.6)" />
      <path
         id="path8"
         d="m 865.945,665.309 c 71.907,0 143.815,0 215.725,0 5.53,0 45.13,6.832 45.13,12.691 0,33.691 0,67.379 0,101.07 -15.04,-4.23 -30.09,-8.461 -45.13,-12.679 105.26,0 210.52,0 315.78,0 5.53,0 45.13,6.82 45.13,12.679 0,28.071 0,56.141 0,84.219 -15.04,-4.23 -30.09,-8.457 -45.13,-12.687 69.83,0 139.67,0 209.5,0 5.72,0 44.89,6.57 45.13,12.687 4.53,111.93 56.88,308.671 195.01,311.961 8.84,0.21 40.63,4.25 45.13,12.69 8.18,15.31 16.36,30.62 24.53,45.94 -15.36,-4.13 -30.73,-8.25 -46.1,-12.37 10.91,-17.2 18.38,-44.3 39.65,-47.45 29.57,-4.36 58,-14.89 84.49,-28.49 110.01,-56.42 149.26,-177.07 150.86,-293.648 0.32,-0.113 0.64,-0.211 0.97,-0.32 52.47,-0.911 105.29,-2.563 157.75,0 5.58,0.257 45.14,6.628 45.14,12.687 0,34.5 0,69 0,103.5 0,26.223 20.83,45.701 35.27,67.021 -15.37,-4.12 -30.74,-8.24 -46.1,-12.36 9.68,-16.46 30.65,-38.79 30.65,-58.27 0,-34.321 0,-68.629 0,-102.938 0,-68.773 0,-137.543 0,-206.312 0.32,-0.11 0.65,-0.211 0.97,-0.321 88.08,0 176.16,0 264.24,0 13.99,0 35.44,13.012 44.16,13.012 -57.07,0 -114.15,0 -171.22,0 -28.54,0 -57.08,0 -85.62,0 -12.19,0 -6.43,17.309 -6.43,28.781 0,71.059 0,142.11 0,213.18 0,23.199 0,46.398 0,69.617 0,17.02 -22.04,40.981 -30.65,55.611 -2.46,4.17 -43.01,-7.79 -46.1,-12.36 -14.45,-21.31 -35.28,-40.798 -35.28,-67.009 0,-34.5 0,-69.011 0,-103.519 15.05,4.226 30.09,8.457 45.13,12.687 -14.67,-0.718 -29.38,-0.75 -44.07,-0.89 -20.53,-0.188 -41.06,-0.028 -61.58,0.14 -10.99,0.09 -51.04,-5.8 -51.34,15.75 -0.19,14.403 -1.58,28.762 -3.02,43.071 -7.44,74.011 -37.53,144.57 -91.79,196 -32.46,30.77 -74.01,51.31 -116.86,63.03 -10.83,2.96 -21.96,5.15 -33.12,6.38 -8.11,0.89 -24.87,37.69 -30,45.79 -2.52,3.97 -43.54,-7.57 -46.1,-12.37 -8.18,-15.31 -16.36,-30.62 -24.53,-45.94 15.04,4.23 30.09,8.46 45.13,12.69 -95.82,-2.28 -179.36,-42.99 -228.28,-126.95 -35.92,-61.65 -54.11,-139.251 -56.99,-210.38 15.04,4.222 30.09,8.449 45.13,12.679 -69.83,0 -139.67,0 -209.5,0 -5.53,0 -45.13,-6.82 -45.13,-12.679 0,-28.071 0,-56.149 0,-84.219 15.04,4.23 30.09,8.449 45.13,12.68 -105.26,0 -210.52,0 -315.78,0 -5.53,0 -45.13,-6.821 -45.13,-12.68 0,-33.691 0,-67.391 0,-101.082 15.04,4.23 30.09,8.461 45.13,12.691 -71.9,0 -143.814,0 -215.725,0 -13.988,0 -35.433,-13.011 -44.16,-13.011 v 0"
         style="fill:#bf8d1e;fill-opacity:1;fill-rule:nonzero;stroke:none"
         transform="matrix(0.13333333,0,0,-0.13333333,0,577.6)" />
      <path
         id="path9"
         d="m 1872.86,1392.39 c 0,-38.56 0,-77.13 0,-115.7 0,0.83 46.11,5.28 46.11,12.36 0,38.57 0,77.13 0,115.7 0,-0.83 -46.11,-5.28 -46.11,-12.36 v 0"
         style="fill:#bf8d1e;fill-opacity:1;fill-rule:nonzero;stroke:none"
         transform="matrix(0.13333333,0,0,-0.13333333,0,577.6)" />
      <path
         id="path10"
         d="m 1811.72,1334.2 c 41.41,0 82.83,0 124.26,0 9.53,0 19.71,3.48 28.74,6.14 2.29,0.67 16.78,6.87 15.42,6.87 -41.42,0 -82.84,0 -124.26,0 -9.53,0 -19.72,-3.49 -28.74,-6.15 -2.3,-0.67 -16.79,-6.86 -15.42,-6.86 v 0"
         style="fill:#bf8d1e;fill-opacity:1;fill-rule:nonzero;stroke:none"
         transform="matrix(0.13333333,0,0,-0.13333333,0,577.6)" />
      <path
         id="path11"
         d="m 2334.42,3851.82 c 0,-43.93 -16.68,-79.52 -37.27,-79.52 -20.58,0 -37.27,35.59 -37.27,79.52 0,43.9 16.69,79.51 37.27,79.51 20.59,0 37.27,-35.61 37.27,-79.51"
         style="fill:#bf8d1e;fill-opacity:1;fill-rule:nonzero;stroke:none"
         transform="matrix(0.13333333,0,0,-0.13333333,0,577.6)" />
      <path
         id="path12"
         d="m 2532.55,3851.82 c 0,-43.93 -16.69,-79.52 -37.27,-79.52 -20.58,0 -37.28,35.59 -37.28,79.52 0,43.9 16.7,79.51 37.28,79.51 20.58,0 37.27,-35.61 37.27,-79.51"
         style="fill:#bf8d1e;fill-opacity:1;fill-rule:nonzero;stroke:none"
         transform="matrix(0.13333333,0,0,-0.13333333,0,577.6)" />
      <path
         id="path13"
         d="m 2730.68,3851.82 c 0,-43.93 -16.69,-79.52 -37.27,-79.52 -20.57,0 -37.27,35.59 -37.27,79.52 0,43.9 16.7,79.51 37.27,79.51 20.58,0 37.27,-35.61 37.27,-79.51"
         style="fill:#bf8d1e;fill-opacity:1;fill-rule:nonzero;stroke:none"
         transform="matrix(0.13333333,0,0,-0.13333333,0,577.6)" />
      <path
         id="path14"
         d="m 2334.42,2372.11 c 0,-43.91 -16.68,-79.51 -37.27,-79.51 -20.58,0 -37.27,35.6 -37.27,79.51 0,43.9 16.69,79.53 37.27,79.53 20.59,0 37.27,-35.63 37.27,-79.53"
         style="fill:#bf8d1e;fill-opacity:1;fill-rule:nonzero;stroke:none"
         transform="matrix(0.13333333,0,0,-0.13333333,0,577.6)" />
      <path
         id="path15"
         d="m 2532.55,2372.11 c 0,-43.91 -16.69,-79.51 -37.27,-79.51 -20.58,0 -37.28,35.6 -37.28,79.51 0,43.9 16.7,79.53 37.28,79.53 20.58,0 37.27,-35.63 37.27,-79.53"
         style="fill:#bf8d1e;fill-opacity:1;fill-rule:nonzero;stroke:none"
         transform="matrix(0.13333333,0,0,-0.13333333,0,577.6)" />
      <path
         id="path16"
         d="m 2730.68,2372.11 c 0,-43.91 -16.69,-79.51 -37.27,-79.51 -20.57,0 -37.27,35.6 -37.27,79.51 0,43.9 16.7,79.53 37.27,79.53 20.58,0 37.27,-35.63 37.27,-79.53"
         style="fill:#bf8d1e;fill-opacity:1;fill-rule:nonzero;stroke:none"
         transform="matrix(0.13333333,0,0,-0.13333333,0,577.6)" />
      <path
         id="path17"
         d="m 1747.97,2946.89 c 43.93,0 79.52,-16.7 79.52,-37.26 0,-20.61 -35.59,-37.29 -79.52,-37.29 -43.92,0 -79.51,16.68 -79.51,37.29 0,20.56 35.59,37.26 79.51,37.26"
         style="fill:#bf8d1e;fill-opacity:1;fill-rule:nonzero;stroke:none"
         transform="matrix(0.13333333,0,0,-0.13333333,0,577.6)" />
      <path
         id="path18"
         d="m 1747.97,3145.02 c 43.93,0 79.52,-16.68 79.52,-37.27 0,-20.54 -35.59,-37.24 -79.52,-37.24 -43.92,0 -79.51,16.7 -79.51,37.24 0,20.59 35.59,37.27 79.51,37.27"
         style="fill:#bf8d1e;fill-opacity:1;fill-rule:nonzero;stroke:none"
         transform="matrix(0.13333333,0,0,-0.13333333,0,577.6)" />
      <path
         id="path19"
         d="m 1747.97,3343.14 c 43.93,0 79.52,-16.68 79.52,-37.26 0,-20.59 -35.59,-37.27 -79.52,-37.27 -43.92,0 -79.51,16.68 -79.51,37.27 0,20.58 35.59,37.26 79.51,37.26"
         style="fill:#bf8d1e;fill-opacity:1;fill-rule:nonzero;stroke:none"
         transform="matrix(0.13333333,0,0,-0.13333333,0,577.6)" />
      <path
         id="path20"
         d="m 3232.09,2946.89 c 43.92,0 79.52,-16.7 79.52,-37.26 0,-20.61 -35.6,-37.29 -79.52,-37.29 -43.93,0 -79.51,16.68 -79.51,37.29 0,20.56 35.58,37.26 79.51,37.26"
         style="fill:#bf8d1e;fill-opacity:1;fill-rule:nonzero;stroke:none"
         transform="matrix(0.13333333,0,0,-0.13333333,0,577.6)" />
      <path
         id="path21"
         d="m 3232.09,3145.02 c 43.92,0 79.52,-16.68 79.52,-37.27 0,-20.54 -35.6,-37.24 -79.52,-37.24 -43.93,0 -79.51,16.7 -79.51,37.24 0,20.59 35.58,37.27 79.51,37.27"
         style="fill:#bf8d1e;fill-opacity:1;fill-rule:nonzero;stroke:none"
         transform="matrix(0.13333333,0,0,-0.13333333,0,577.6)" />
      <path
         id="path22"
         d="m 3232.09,3343.14 c 43.92,0 79.52,-16.68 79.52,-37.26 0,-20.59 -35.6,-37.27 -79.52,-37.27 -43.93,0 -79.51,16.68 -79.51,37.27 0,20.58 35.58,37.26 79.51,37.26"
         style="fill:#bf8d1e;fill-opacity:1;fill-rule:nonzero;stroke:none"
         transform="matrix(0.13333333,0,0,-0.13333333,0,577.6)" />
      <path
         id="path23"
         d="m 3108.74,3303.81 h -417.41 v 417.4 h -392.1 v -417.4 h -417.4 V 2911.7 h 417.4 v -417.4 h 392.1 v 417.4 h 417.41 v 392.11"
         style="fill:#ed1c24;fill-opacity:1;fill-rule:nonzero;stroke:none"
         transform="matrix(0.13333333,0,0,-0.13333333,0,577.6)" />
      <path
         id="path24"
         d="m 3108.74,3303.81 h -417.41 v 417.4 h -392.1 v -417.4 h -417.4 V 2911.7 h 417.4 v -417.4 h 392.1 v 417.4 h 417.41 z"
         style="fill:none;stroke:#bf8d1e;stroke-width:15.0729;stroke-linecap:butt;stroke-linejoin:miter;stroke-miterlimit:4;stroke-dasharray:none;stroke-opacity:1"
         transform="matrix(0.13333333,0,0,-0.13333333,0,577.6)" />
      <path
         id="path25"
         d="m 1453.28,424.492 v 164.61 h -23.44 v 23.718 l 46.87,23.442 h 23.72 v -211.77 h -47.15"
         style="fill:#ffffff;fill-opacity:1;fill-rule:nonzero;stroke:none"
         transform="matrix(0.13333333,0,0,-0.13333333,0,577.6)" />
      <path
         id="path26"
         d="M 1641.6,589.102 V 542.23 c 0,-6.398 2.31,-11.949 6.92,-16.66 4.61,-4.699 10.11,-7.05 16.52,-7.05 6.58,0 12.19,2.351 16.8,7.05 4.6,4.711 6.92,10.262 6.92,16.66 v 46.872 c 0,6.589 -2.32,12.187 -6.92,16.808 -4.61,4.61 -10.22,6.91 -16.8,6.91 -6.41,0 -11.91,-2.34 -16.52,-7.05 -4.61,-4.707 -6.92,-10.27 -6.92,-16.668 z m 47.16,-70.582 c -1.89,-15.629 -9.8,-23.43 -23.72,-23.43 h -23.44 c -12.79,0 -23.86,4.601 -33.17,13.82 -9.31,9.219 -13.98,20.34 -13.98,33.32 v 46.872 c 0,12.8 4.67,23.859 13.98,33.168 9.31,9.332 20.38,13.992 33.17,13.992 h 47.16 c 12.79,0 23.81,-4.66 33.04,-13.992 9.22,-9.309 13.82,-20.368 13.82,-33.168 V 506.93 c 0,-22.59 -8.04,-41.961 -24.13,-58.149 -16.1,-16.191 -35.44,-24.289 -58.03,-24.289 h -35.3 v 23.43 h 23.44 c 12.99,0 24.1,4.668 33.32,13.98 9.22,9.317 13.84,20.368 13.84,33.188 v 23.43"
         style="fill:#ffffff;fill-opacity:1;fill-rule:nonzero;stroke:none"
         transform="matrix(0.13333333,0,0,-0.13333333,0,577.6)" />
      <path
         id="path27"
         d="m 1806.5,589.102 h -23.72 c 3.76,31.437 19.49,47.16 47.16,47.16 h 47.15 c 12.79,0 23.81,-4.66 33.03,-13.992 9.23,-9.309 13.83,-20.368 13.83,-33.168 v -11.571 c 0,-16.371 -15.14,-37.562 -45.45,-63.539 l -3.11,-2.543 c -30.3,-25.969 -45.45,-46.39 -45.45,-61.269 v -2.258 h 94.01 v -23.43 h -141.17 v 23.43 c 0,16.379 15.25,37.558 45.74,63.527 l 3.11,2.543 c 30.3,25.977 45.46,47.168 45.46,63.539 v 11.571 c 0,6.589 -2.36,12.187 -7.07,16.808 -4.7,4.61 -10.25,6.91 -16.65,6.91 h -23.43 c -14.5,0 -22.31,-7.898 -23.44,-23.718"
         style="fill:#ffffff;fill-opacity:1;fill-rule:nonzero;stroke:none"
         transform="matrix(0.13333333,0,0,-0.13333333,0,577.6)" />
      <path
         id="path28"
         d="m 1994.82,589.102 h -23.72 c 3.76,31.437 19.49,47.16 47.16,47.16 h 47.15 c 12.8,0 23.83,-4.66 33.05,-13.992 9.22,-9.309 13.82,-20.368 13.82,-33.168 v -11.571 c 0,-16.371 -15.15,-37.562 -45.45,-63.539 l -3.11,-2.543 c -30.3,-25.969 -45.46,-46.39 -45.46,-61.269 v -2.258 h 94.02 v -23.43 H 1971.1 v 23.43 c 0,16.379 15.27,37.558 45.76,63.527 l 3.1,2.543 c 30.3,25.977 45.45,47.168 45.45,63.539 v 11.571 c 0,6.589 -2.34,12.187 -7.05,16.808 -4.72,4.61 -10.26,6.91 -16.66,6.91 h -23.44 c -14.49,0 -22.3,-7.898 -23.44,-23.718"
         style="fill:#ffffff;fill-opacity:1;fill-rule:nonzero;stroke:none"
         transform="matrix(0.13333333,0,0,-0.13333333,0,577.6)" />
      <path
         id="path29"
         d="m 558.074,1653.66 h 74.961 v 74.51 c 0,10.47 -3.664,19.38 -10.992,26.71 -7.34,7.33 -16.238,11 -26.711,11 -10.176,0 -18.93,-3.67 -26.262,-11 -7.332,-7.33 -10.996,-16.24 -10.996,-26.71 z m -74.965,-187.19 v 261.7 c 0,20.65 7.407,38.3 22.223,52.97 14.813,14.66 32.387,21.99 52.742,21.99 h 74.961 c 20.348,0 37.86,-7.4 52.52,-22.21 14.66,-14.82 22,-32.41 22,-52.75 v -261.7 h -74.52 v 149.49 h -74.961 v -149.49 h -74.965"
         style="fill:#ffffff;fill-opacity:1;fill-rule:nonzero;stroke:none"
         transform="matrix(0.13333333,0,0,-0.13333333,0,577.6)" />
      <path
         id="path30"
         d="m 820.254,1591.57 h 24.902 c 6.996,0 12.946,2.45 17.848,7.35 4.894,4.9 7.348,10.76 7.348,17.55 v 24.91 c 0,6.99 -2.454,12.94 -7.348,17.85 -4.902,4.89 -10.852,7.34 -17.848,7.34 h -24.902 z m -50.098,-125.1 v 225 h 100.196 c 13.597,0 25.3,-4.95 35.101,-14.85 9.797,-9.89 14.703,-21.65 14.703,-35.24 v -13.51 c 0,-11.2 -3.804,-21.94 -11.402,-32.25 -7.602,-10.3 -20.399,-15.45 -38.402,-15.45 h 24.902 c 6.797,0 12.644,-2.45 17.547,-7.35 4.898,-4.9 7.355,-10.85 7.355,-17.85 v -88.5 h -49.804 v 75 c 0,6.8 -2.454,12.65 -7.348,17.55 -4.902,4.9 -10.852,7.36 -17.848,7.36 h -24.902 v -99.91 h -50.098"
         style="fill:#ffffff;fill-opacity:1;fill-rule:nonzero;stroke:none"
         transform="matrix(0.13333333,0,0,-0.13333333,0,577.6)" />
      <path
         id="path31"
         d="m 1120.25,1516.57 c -2,-33.4 -18.6,-50.1 -49.8,-50.1 h -50.1 c -13.6,0 -25.35,4.91 -35.248,14.7 -9.903,9.8 -14.848,21.6 -14.848,35.4 v 124.81 c 0,13.59 4.844,25.35 14.547,35.24 9.703,9.9 21.549,14.85 35.549,14.85 h 50.1 c 31.4,0 48,-16.7 49.8,-50.09 h -24.9 c -2,16.79 -10.3,25.19 -24.9,25.19 h -25.2 c -6.8,0 -12.65,-2.45 -17.55,-7.34 -4.9,-4.91 -7.35,-10.86 -7.35,-17.85 v -124.81 c 0,-6.8 2.45,-12.7 7.35,-17.69 4.9,-5 10.75,-7.5 17.55,-7.5 h 25.2 c 14.8,0 23.1,8.39 24.9,25.19 h 24.9"
         style="fill:#ffffff;fill-opacity:1;fill-rule:nonzero;stroke:none"
         transform="matrix(0.13333333,0,0,-0.13333333,0,577.6)" />
      <path
         id="path32"
         d="m 1170.35,1466.47 v 225 h 125.1 v -24.9 h -75 v -75 h 50.1 v -25.19 h -50.1 v -75 h 75 v -24.91 h -125.1"
         style="fill:#ffffff;fill-opacity:1;fill-rule:nonzero;stroke:none"
         transform="matrix(0.13333333,0,0,-0.13333333,0,577.6)" />
      <path
         id="path33"
         d="m 1345.25,1466.47 v 225 h 50.1 v -200.09 h 75 v -24.91 h -125.1"
         style="fill:#ffffff;fill-opacity:1;fill-rule:nonzero;stroke:none"
         transform="matrix(0.13333333,0,0,-0.13333333,0,577.6)" />
      <path
         id="path34"
         d="m 1520.15,1466.47 v 225 h 50.09 v -200.09 h 75 v -24.91 h -125.09"
         style="fill:#ffffff;fill-opacity:1;fill-rule:nonzero;stroke:none"
         transform="matrix(0.13333333,0,0,-0.13333333,0,577.6)" />
      <path
         id="path35"
         d="m 1745.14,1591.57 h 50.09 v 49.81 c 0,6.99 -2.44,12.94 -7.34,17.85 -4.9,4.89 -10.85,7.34 -17.85,7.34 -6.8,0 -12.65,-2.45 -17.55,-7.34 -4.9,-4.91 -7.35,-10.86 -7.35,-17.85 z m -50.1,-125.1 v 174.91 c 0,13.79 4.95,25.59 14.85,35.4 9.9,9.79 21.65,14.69 35.25,14.69 h 50.09 c 13.61,0 25.32,-4.95 35.11,-14.85 9.8,-9.89 14.7,-21.65 14.7,-35.24 v -174.91 h -49.81 v 99.91 h -50.09 v -99.91 h -50.1"
         style="fill:#ffffff;fill-opacity:1;fill-rule:nonzero;stroke:none"
         transform="matrix(0.13333333,0,0,-0.13333333,0,577.6)" />
      <path
         id="path36"
         d="m 490.586,2194.05 h -37.258 c -3.293,25.14 -15.109,37.71 -35.457,37.71 -13.176,0 -23.047,-3.15 -29.629,-9.43 -6.586,-6.29 -9.875,-15.71 -9.875,-28.28 0,-9.28 3.59,-18.11 10.774,-26.48 l 79.453,-88.88 c 14.66,-16.46 21.992,-34.12 21.992,-52.97 v -18.41 c 0,-20.35 -7.332,-37.93 -21.992,-52.74 -14.668,-14.82 -32.321,-22.22 -52.969,-22.22 h -37.258 c -24.844,0 -43.543,6.21 -56.113,18.63 -12.566,12.42 -18.852,31.2 -18.852,56.33 h 37.707 c 0,-2.69 0,-4.78 0,-6.28 0,-10.17 3.887,-17.96 11.672,-23.34 7.782,-5.39 16.305,-8.08 25.586,-8.08 13.164,0 22.668,3.21 28.504,9.65 5.832,6.43 8.754,15.78 8.754,28.05 0,9.58 -3.59,18.41 -10.773,26.49 l -79.454,88.87 c -14.668,16.17 -21.996,33.82 -21.996,52.97 v 18.41 c 0,20.34 7.328,37.93 21.996,52.75 14.661,14.81 32.321,22.21 52.969,22.21 h 37.258 c 46.977,0 71.969,-24.99 74.961,-74.96"
         style="fill:#ffffff;fill-opacity:1;fill-rule:nonzero;stroke:none"
         transform="matrix(0.13333333,0,0,-0.13333333,0,577.6)" />
      <path
         id="path37"
         d="m 602.84,2057.45 h 24.902 c 7,0 12.946,2.45 17.848,7.35 4.898,4.9 7.348,10.76 7.348,17.55 v 24.9 c 0,7 -2.45,12.95 -7.348,17.86 -4.902,4.89 -10.848,7.34 -17.848,7.34 H 602.84 Z m -50.098,-125.1 v 225 h 100.196 c 13.601,0 25.304,-4.95 35.105,-14.85 9.793,-9.89 14.699,-21.65 14.699,-35.25 v -24.9 c 0,-13.6 -4.906,-25.35 -14.699,-35.25 -9.801,-9.89 -21.504,-14.85 -35.105,-14.85 H 602.84 v -99.9 h -50.098"
         style="fill:#ffffff;fill-opacity:1;fill-rule:nonzero;stroke:none"
         transform="matrix(0.13333333,0,0,-0.13333333,0,577.6)" />
      <path
         id="path38"
         d="m 802.938,2107.25 v -124.8 c 0,-6.8 2.449,-12.71 7.351,-17.7 4.895,-5 10.75,-7.5 17.551,-7.5 7,0 12.945,2.5 17.848,7.5 4.898,4.99 7.347,10.9 7.347,17.7 v 124.8 c 0,7 -2.449,12.95 -7.347,17.86 -4.903,4.89 -10.848,7.34 -17.848,7.34 -6.801,0 -12.656,-2.45 -17.551,-7.34 -4.902,-4.91 -7.351,-10.86 -7.351,-17.86 z m 0,50.1 h 50.097 c 13.602,0 25.305,-4.95 35.106,-14.85 9.793,-9.89 14.699,-21.65 14.699,-35.25 v -124.8 c 0,-13.6 -4.906,-25.35 -14.699,-35.24 -9.801,-9.91 -21.504,-14.86 -35.106,-14.86 h -50.097 c -13.602,0 -25.348,4.9 -35.247,14.7 -9.902,9.79 -14.851,21.6 -14.851,35.4 v 124.8 c 0,13.8 4.949,25.6 14.851,35.4 9.899,9.8 21.645,14.7 35.247,14.7"
         style="fill:#ffffff;fill-opacity:1;fill-rule:nonzero;stroke:none"
         transform="matrix(0.13333333,0,0,-0.13333333,0,577.6)" />
      <path
         id="path39"
         d="m 1003.04,2057.45 h 24.9 c 7,0 12.94,2.45 17.85,7.35 4.89,4.9 7.34,10.76 7.34,17.55 v 24.9 c 0,7 -2.45,12.95 -7.34,17.86 -4.91,4.89 -10.85,7.34 -17.85,7.34 h -24.9 z m -50.102,-125.1 v 225 h 100.192 c 13.6,0 25.31,-4.95 35.11,-14.85 9.79,-9.89 14.7,-21.65 14.7,-35.25 v -13.5 c 0,-11.2 -3.8,-21.94 -11.4,-32.25 -7.6,-10.3 -20.4,-15.45 -38.41,-15.45 h 24.91 c 6.79,0 12.64,-2.45 17.55,-7.35 4.89,-4.9 7.35,-10.85 7.35,-17.85 v -88.5 h -49.81 v 75 c 0,6.8 -2.45,12.65 -7.34,17.55 -4.91,4.9 -10.85,7.35 -17.85,7.35 h -24.9 v -99.9 h -50.102"
         style="fill:#ffffff;fill-opacity:1;fill-rule:nonzero;stroke:none"
         transform="matrix(0.13333333,0,0,-0.13333333,0,577.6)" />
      <path
         id="path40"
         d="m 1178.23,1932.35 v 200.1 h -50.1 v 24.9 h 150 v -24.9 h -50.09 v -200.1 h -49.81"
         style="fill:#ffffff;fill-opacity:1;fill-rule:nonzero;stroke:none"
         transform="matrix(0.13333333,0,0,-0.13333333,0,577.6)" />
      <path
         id="path41"
         d="m 1328.23,1932.35 v 225 h 49.81 v -225 h -49.81"
         style="fill:#ffffff;fill-opacity:1;fill-rule:nonzero;stroke:none"
         transform="matrix(0.13333333,0,0,-0.13333333,0,577.6)" />
      <path
         id="path42"
         d="m 1553.23,2157.35 h 49.81 v -139.5 c 0,-23.4 -8.36,-43.5 -25.06,-60.3 -16.7,-16.8 -36.75,-25.2 -60.14,-25.2 h -64.8 v 225 h 50.09 v -200.1 h 24.91 c 6.99,0 12.94,2.5 17.84,7.5 4.9,4.99 7.35,10.9 7.35,17.7 v 174.9"
         style="fill:#ffffff;fill-opacity:1;fill-rule:nonzero;stroke:none"
         transform="matrix(0.13333333,0,0,-0.13333333,0,577.6)" />
      <path
         id="path43"
         d="m 1703.23,2057.45 h 50.1 v 49.8 c 0,7 -2.45,12.95 -7.34,17.86 -4.91,4.89 -10.86,7.34 -17.86,7.34 -6.8,0 -12.65,-2.45 -17.54,-7.34 -4.91,-4.91 -7.36,-10.86 -7.36,-17.86 z m -50.1,-125.1 v 174.9 c 0,13.8 4.95,25.6 14.85,35.4 9.9,9.8 21.65,14.7 35.25,14.7 h 50.1 c 13.6,0 25.3,-4.95 35.1,-14.85 9.8,-9.89 14.7,-21.65 14.7,-35.25 v -174.9 h -49.8 v 99.9 h -50.1 v -99.9 h -50.1"
         style="fill:#ffffff;fill-opacity:1;fill-rule:nonzero;stroke:none"
         transform="matrix(0.13333333,0,0,-0.13333333,0,577.6)" />
      <path
         id="path44"
         d="m 320.551,2727.82 h 74.515 v -261.7 c 0,-20.35 -7.336,-37.93 -21.996,-52.75 -14.664,-14.81 -32.172,-22.21 -52.519,-22.21 H 245.59 c -20.356,0 -37.93,7.33 -52.742,21.99 -14.817,14.66 -22.223,32.32 -22.223,52.97 v 261.7 h 74.965 v -261.7 c 0,-10.18 3.664,-19.01 10.996,-26.49 7.328,-7.48 16.086,-11.22 26.262,-11.22 10.472,0 19.367,3.74 26.707,11.22 7.328,7.48 10.996,16.31 10.996,26.49 v 261.7"
         style="fill:#ffffff;fill-opacity:1;fill-rule:nonzero;stroke:none"
         transform="matrix(0.13333333,0,0,-0.13333333,0,577.6)" />
      <path
         id="path45"
         d="m 457.672,2391.16 v 225 h 11.699 l 138.301,-125.1 v 125.1 h 25.195 v -225 h -11.398 l -138.602,125.09 v -125.09 h -25.195"
         style="fill:#ffffff;fill-opacity:1;fill-rule:nonzero;stroke:none"
         transform="matrix(0.13333333,0,0,-0.13333333,0,577.6)" />
      <path
         id="path46"
         d="m 707.867,2391.16 v 225 h 49.805 v -225 h -49.805"
         style="fill:#ffffff;fill-opacity:1;fill-rule:nonzero;stroke:none"
         transform="matrix(0.13333333,0,0,-0.13333333,0,577.6)" />
      <path
         id="path47"
         d="m 882.77,2566.06 v -124.81 c 0,-6.79 2.445,-12.7 7.347,-17.69 4.899,-5 10.75,-7.5 17.555,-7.5 6.996,0 12.941,2.5 17.844,7.5 4.898,4.99 7.351,10.9 7.351,17.69 v 124.81 c 0,6.99 -2.453,12.95 -7.351,17.85 -4.903,4.89 -10.848,7.34 -17.844,7.34 -6.805,0 -12.656,-2.45 -17.555,-7.34 -4.902,-4.9 -7.347,-10.86 -7.347,-17.85 z m 0,50.1 h 50.097 c 13.598,0 25.301,-4.96 35.102,-14.86 9.793,-9.89 14.703,-21.65 14.703,-35.24 v -124.81 c 0,-13.6 -4.91,-25.35 -14.703,-35.24 -9.801,-9.9 -21.504,-14.85 -35.102,-14.85 H 882.77 c -13.606,0 -25.352,4.9 -35.25,14.69 -9.903,9.8 -14.848,21.6 -14.848,35.4 v 124.81 c 0,13.8 4.945,25.59 14.848,35.4 9.898,9.79 21.644,14.7 35.25,14.7"
         style="fill:#ffffff;fill-opacity:1;fill-rule:nonzero;stroke:none"
         transform="matrix(0.13333333,0,0,-0.13333333,0,577.6)" />
      <path
         id="path48"
         d="m 1032.77,2391.16 v 225 h 11.7 l 138.3,-125.1 v 125.1 h 25.19 v -225 h -11.39 l -138.61,125.09 v -125.09 h -25.19"
         style="fill:#ffffff;fill-opacity:1;fill-rule:nonzero;stroke:none"
         transform="matrix(0.13333333,0,0,-0.13333333,0,577.6)" />
      <path
         id="path49"
         d="m 1257.77,2391.16 v 225 h 125.1 v -24.91 h -75 v -75 h 50.09 v -25.19 h -50.09 v -75 h 75 v -24.9 h -125.1"
         style="fill:#ffffff;fill-opacity:1;fill-rule:nonzero;stroke:none"
         transform="matrix(0.13333333,0,0,-0.13333333,0,577.6)" />
    </g>
  </g>
</svg>
