<?xml version="1.0" encoding="UTF-8" standalone="no"?>
<!-- Created with Inkscape (http://www.inkscape.org/) -->

<svg
   width="925.38434"
   height="284.194"
   viewBox="0 0 244.84127 75.192996"
   version="1.1"
   id="svg5"
   xml:space="preserve"
   sodipodi:docname="logo.svg"
   inkscape:version="1.4.2 (ebf0e940d0, 2025-05-08)"
   inkscape:export-filename="usarcella-logo-scritta.png"
   inkscape:export-xdpi="101.33907"
   inkscape:export-ydpi="101.33907"
   xmlns:inkscape="http://www.inkscape.org/namespaces/inkscape"
   xmlns:sodipodi="http://sodipodi.sourceforge.net/DTD/sodipodi-0.dtd"
   xmlns="http://www.w3.org/2000/svg"
   xmlns:svg="http://www.w3.org/2000/svg"><sodipodi:namedview
     id="namedview7"
     pagecolor="#ffffff"
     bordercolor="#000000"
     borderopacity="0.25"
     inkscape:showpageshadow="2"
     inkscape:pageopacity="0"
     inkscape:pagecheckerboard="true"
     inkscape:deskcolor="#d1d1d1"
     inkscape:document-units="mm"
     showgrid="false"
     inkscape:zoom="1"
     inkscape:cx="572.5"
     inkscape:cy="259.5"
     inkscape:window-width="1878"
     inkscape:window-height="1163"
     inkscape:window-x="42"
     inkscape:window-y="1080"
     inkscape:window-maximized="1"
     inkscape:current-layer="layer3"
     showguides="true" /><defs
     id="defs2"><rect
       x="13.75"
       y="101.5"
       width="112.95"
       height="86.850006"
       id="rect339" /><linearGradient
       id="linearGradient18397"
       inkscape:swatch="solid"><stop
         style="stop-color:#c09640;stop-opacity:1;"
         offset="0"
         id="stop18395" /></linearGradient><linearGradient
       id="linearGradient10594"
       inkscape:swatch="solid"><stop
         style="stop-color:#c09640;stop-opacity:1;"
         offset="0"
         id="stop10592" /></linearGradient><clipPath
       clipPathUnits="userSpaceOnUse"
       id="clipPath414"><rect
         style="fill:none;stroke:#000000;stroke-width:0.399111;paint-order:stroke fill markers"
         id="rect416"
         width="62.664623"
         height="75.407127"
         x="59.968151"
         y="84.080429" /></clipPath><inkscape:path-effect
       effect="fill_between_many"
       method="originald"
       linkedpaths="#path2024,0,1|#path2026,0,1"
       id="path-effect2034"
       is_visible="true"
       lpeversion="0"
       join="true"
       close="true"
       autoreverse="true" /></defs><g
     inkscape:groupmode="layer"
     id="layer4"
     inkscape:label="background"
     style="display:inline;fill:#000000;fill-opacity:1;stroke:none;stroke-width:0;stroke-dasharray:none"
     transform="translate(-0.1219268,0.03186162)" /><g
     inkscape:label="foreground"
     inkscape:groupmode="layer"
     id="layer1"
     style="display:inline"
     transform="translate(-60.090078,-84.048567)" /><g
     inkscape:groupmode="layer"
     id="layer2"
     inkscape:label="Disegni"
     style="display:inline"
     transform="translate(-60.090078,-84.048567)" /><g
     inkscape:groupmode="layer"
     id="layer5"
     inkscape:label="Scritte" /><g
     inkscape:groupmode="layer"
     id="layer3"
     inkscape:label="Pall. Arcella"
     style="fill:#000000;stroke:#010101;stroke-opacity:1"><g
       id="g6109"
       inkscape:label="fill"><path
         style="fill:#ffffff;fill-opacity:1;stroke:#ffffff;stroke-width:0.334066;stroke-linejoin:bevel;stroke-dasharray:none;stroke-opacity:1"
         d="m 263.39728,60.634406 v -2.65165 h 1.46952 c 1.37932,0 1.49869,-0.03044 1.94455,-0.495809 l 0.47501,-0.495809 V 35.885669 14.7802 l -0.47501,-0.495809 c -0.44586,-0.465371 -0.56523,-0.495809 -1.94455,-0.495809 h -1.46952 V 11.048543 8.3085047 h 16.39747 16.39749 l 4.02022,4.0230803 4.02023,4.023081 v 7.336263 7.336264 l -4.02308,4.020227 -4.02308,4.02023 h -9.73243 -9.73243 l -0.47501,0.495809 -0.47502,0.495809 v 8.486729 8.486729 l 0.49581,0.475015 c 0.45564,0.436527 0.61319,0.475015 1.94455,0.475015 h 1.44873 v 2.65165 2.651651 h -8.13173 -8.13172 z m 29.79648,-28.991378 c 1.1264,-1.118112 2.16178,-2.247742 2.30083,-2.510289 0.36775,-0.694352 0.37013,-10.188037 0.003,-10.889324 -0.13755,-0.262546 -1.15948,-1.372289 -2.27096,-2.466095 l -2.02087,-1.988738 h -7.30779 c -7.25977,0 -7.31047,0.0025 -7.71693,0.384368 l -0.40914,0.384368 v 9.107707 9.107705 l 0.48038,0.501406 0.48038,0.501404 7.20667,-0.04979 7.20668,-0.04979 z"
         id="path5875"
         transform="scale(0.26458333)" /><path
         style="fill:#ffffff;fill-opacity:1;stroke:#ffffff;stroke-width:0.334066;stroke-linejoin:bevel;stroke-dasharray:none;stroke-opacity:1"
         d="m 304.58625,60.634406 v -2.65165 h 0.8901 c 0.50442,0 1.07044,-0.118161 1.30629,-0.272701 0.34831,-0.228215 1.57531,-3.728465 7.52194,-21.457749 l 7.10573,-21.18505 -0.41289,-0.637149 -0.41288,-0.637148 -1.63519,-0.0022 -1.63518,-0.0022 V 11.048543 8.3085047 h 12.46275 12.46276 v 2.7400383 2.740039 h -1.82291 c -1.81493,0 -1.8246,0.0023 -2.20971,0.523172 -0.21274,0.287745 -0.3868,0.625829 -0.3868,0.751298 0,0.125469 3.14859,9.673873 6.99685,21.218676 7.74605,23.238142 7.12556,21.701028 8.76012,21.701028 h 0.86004 v 2.65165 2.651651 h -7.68978 -7.68979 v -2.651651 -2.65165 h 1.30484 c 1.28559,0 1.31187,-0.0092 1.78075,-0.623935 l 0.4759,-0.623935 -1.70639,-5.119262 c -1.48299,-4.449044 -1.77177,-5.165817 -2.20578,-5.474861 -0.48392,-0.344584 -0.76623,-0.355599 -9.1133,-0.355599 -8.20317,0 -8.64018,0.01628 -9.1651,0.341358 -0.51032,0.316044 -0.67244,0.706267 -2.18638,5.262534 -0.89935,2.706649 -1.63518,5.034038 -1.63518,5.171977 0,0.137937 0.17899,0.513711 0.39775,0.835052 0.38846,0.570612 0.42767,0.584283 1.67938,0.585464 l 1.28163,0.0012 v 2.65165 2.651651 h -7.68979 -7.68978 z m 32.41754,-18.46137 c 0.2546,-0.333807 0.46292,-0.681815 0.46292,-0.77335 0,-0.09154 -1.55395,-4.869813 -3.45322,-10.618396 l -3.45323,-10.45197 h -0.94382 -0.94381 l -3.54362,10.554048 -3.54362,10.554046 0.47185,0.667498 0.47184,0.6675 7.00589,0.0038 7.00589,0.0038 z"
         id="path5879"
         transform="scale(0.26458333)" /><path
         style="fill:#ffffff;fill-opacity:1;stroke:#ffffff;stroke-width:0.334066;stroke-linejoin:bevel;stroke-dasharray:none;stroke-opacity:1"
         d="m 363.45288,60.634406 v -2.65165 h 1.47179 c 1.30988,0 1.51407,-0.04501 1.85616,-0.409141 l 0.38437,-0.409141 V 35.860896 14.557318 l -0.40915,-0.384368 c -0.35128,-0.330013 -0.61377,-0.384368 -1.85615,-0.384368 h -1.44702 V 11.048543 8.3085047 h 8.04334 8.04334 v 2.7400383 2.740039 h -1.46952 c -1.37932,0 -1.4987,0.03044 -1.94455,0.495809 l -0.47501,0.495809 v 21.126263 21.126263 l 0.49581,0.475015 0.4958,0.475015 h 9.37062 9.37061 l 0.47501,-0.495809 c 0.43653,-0.455637 0.47502,-0.613189 0.47502,-1.944544 v -1.448734 h 2.65165 2.65165 v 4.596194 4.596194 h -19.09188 -19.09189 z"
         id="path5883"
         transform="scale(0.26458333)" /><path
         style="fill:#ffffff;fill-opacity:1;stroke:#ffffff;stroke-width:0.334066;stroke-linejoin:bevel;stroke-dasharray:none;stroke-opacity:1"
         d="m 409.06127,60.634406 v -2.65165 h 1.46953 c 1.37931,0 1.49869,-0.03044 1.94454,-0.495809 l 0.47502,-0.495809 V 35.774229 14.557318 l -0.40914,-0.384368 c -0.35524,-0.333733 -0.61141,-0.384368 -1.94455,-0.384368 h -1.5354 V 11.048543 8.3085047 h 8.13173 8.13173 v 2.7400383 2.740039 h -1.56018 c -1.40226,0 -1.59908,0.04141 -1.94454,0.409141 l -0.38437,0.409141 v 21.212931 21.212931 l 0.49581,0.475015 0.49581,0.475015 h 9.37061 9.37061 l 0.47502,-0.495809 c 0.43653,-0.455637 0.47501,-0.613189 0.47501,-1.944544 v -1.448734 h 2.65165 2.65165 v 4.596194 4.596194 h -19.18027 -19.18027 z"
         id="path5885"
         transform="scale(0.26458333)" /><path
         style="fill:#ffffff;fill-opacity:1;stroke:#ffffff;stroke-width:0.334066;stroke-linejoin:bevel;stroke-dasharray:none;stroke-opacity:1"
         d="m 454.84644,60.634406 v -2.65165 h 0.81241 c 1.69223,0 0.96519,1.786627 8.86127,-21.775415 l 7.11041,-21.217613 -0.45808,-0.600573 -0.45807,-0.600573 h -1.57001 -1.57001 V 11.048543 8.3085047 h 12.46275 12.46276 v 2.7400383 2.740039 h -1.84716 -1.84716 l -0.44726,0.586388 -0.44725,0.586387 7.05482,21.162833 c 5.56533,16.694687 7.14146,21.235037 7.46514,21.504818 0.2882,0.240213 0.6865,0.343735 1.33839,0.347867 l 0.92807,0.0059 v 2.65165 2.651651 h -7.68978 -7.68979 v -2.651651 -2.65165 h 1.29759 c 1.28722,0 1.3012,-0.0051 1.74869,-0.633996 l 0.45109,-0.633997 -1.68365,-5.067051 c -1.34986,-4.062502 -1.7754,-5.144647 -2.14643,-5.458444 l -0.46278,-0.391389 -8.75045,-0.0055 -8.75045,-0.0055 -0.48827,0.396871 c -0.40715,0.330931 -0.76675,1.232784 -2.16436,5.428054 l -1.67608,5.031187 0.44329,0.669861 c 0.44277,0.66907 0.44476,0.669864 1.67822,0.669864 h 1.23493 v 2.65165 2.651651 h -7.6014 -7.60139 z m 32.41451,-18.526911 0.46602,-0.672466 -3.48344,-10.560594 -3.48343,-10.560595 -0.95675,0.05193 -0.95675,0.05193 -3.53022,10.486457 -3.53023,10.486458 0.48141,0.694668 0.48141,0.694669 h 7.02298 7.02298 z"
         id="path5887"
         transform="scale(0.26458333)" /><path
         style="fill:#ffffff;fill-opacity:1;stroke:#ffffff;stroke-width:0.334066;stroke-linejoin:bevel;stroke-dasharray:none;stroke-opacity:1"
         d="m 517.55653,59.262976 -4.02023,-4.02308 V 35.794429 16.348962 l 4.02308,-4.020229 4.02308,-4.0202283 h 11.78374 11.78373 l 3.90379,4.0181513 3.90378,4.01815 v 3.760024 3.760024 h -4.24264 -4.24264 V 21.3131 c 0,-1.403465 -0.0764,-2.735919 -0.16984,-2.96101 -0.0934,-0.22509 -1.06958,-1.343962 -2.16925,-2.486382 l -1.99941,-2.077126 h -6.78512 -6.78511 l -2.02087,1.988738 c -1.11148,1.093806 -2.13341,2.203549 -2.27096,2.466095 -0.21084,0.402448 -0.24813,3.162656 -0.23766,17.589281 0.007,9.411558 0.0665,17.239357 0.13259,17.395108 0.0661,0.155751 1.05141,1.269444 2.18961,2.474874 l 2.06946,2.19169 6.76938,0.05167 6.76937,0.05167 2.09636,-2.167876 c 1.153,-1.192333 2.16726,-2.354344 2.25391,-2.58225 0.0867,-0.227904 0.15754,-1.443336 0.15754,-2.70096 v -2.286589 h 4.24264 4.24264 v 3.499172 3.499175 l -3.90409,4.013835 -3.90409,4.013837 h -11.78628 -11.78628 z"
         id="path5891"
         transform="scale(0.26458333)" /><path
         style="fill:#ffffff;fill-opacity:1;stroke:#ffffff;stroke-width:0.334066;stroke-linejoin:bevel;stroke-dasharray:none;stroke-opacity:1"
         d="m 561.79634,60.634406 v -2.65165 l 0.92807,-0.0059 c 0.65189,-0.0041 1.05019,-0.107653 1.33839,-0.347866 0.32368,-0.269781 1.89981,-4.810131 7.46514,-21.504818 l 7.05482,-21.162828 -0.44725,-0.586387 -0.44726,-0.586388 h -1.582 -1.58199 V 11.048543 8.3085047 h 12.46276 12.46275 v 2.7400383 2.740039 h -1.83517 -1.83518 l -0.45319,0.594163 -0.45319,0.594162 7.10553,21.223914 c 7.89095,23.569927 7.16397,21.781935 8.85638,21.781935 h 0.81241 v 2.65165 2.651651 h -7.68978 -7.68979 v -2.651651 -2.65165 h 1.32332 1.32332 l 0.44329,-0.669864 0.44329,-0.669861 -1.67608,-5.031187 c -1.39761,-4.19527 -1.75721,-5.097123 -2.16436,-5.428054 l -0.48827,-0.396871 -8.75045,0.0055 -8.75045,0.0055 -0.46278,0.391389 c -0.37104,0.313797 -0.79657,1.395942 -2.14643,5.458444 l -1.68365,5.067051 0.45109,0.633997 c 0.44749,0.628926 0.46147,0.633996 1.74869,0.633996 h 1.29759 v 2.65165 2.651651 h -7.68979 -7.68978 z m 32.44746,-18.543352 0.45589,-0.688906 -3.48077,-10.544574 -3.48077,-10.544574 -0.98014,0.05235 -0.98013,0.05235 -3.49678,10.490971 -3.49678,10.49097 0.45672,0.690155 0.45672,0.690156 h 7.04507 7.04507 z"
         id="path5895"
         transform="scale(0.26458333)" /><path
         style="fill:#ffffff;fill-opacity:1;stroke:#ffffff;stroke-width:0.334066;stroke-linejoin:bevel;stroke-dasharray:none;stroke-opacity:1"
         d="m 620.4862,60.634406 v -2.65165 h 1.46953 c 1.37931,0 1.49869,-0.03044 1.94454,-0.495809 l 0.47502,-0.495809 V 35.774229 14.557318 l -0.40915,-0.384368 c -0.35524,-0.333733 -0.6114,-0.384368 -1.94454,-0.384368 h -1.5354 V 11.048543 8.3085047 h 6.60303 6.60303 L 645.3242,27.709747 c 6.39756,10.670683 11.65912,19.433942 11.69236,19.473908 0.0332,0.03997 0.4984,-0.0324 1.03369,-0.160816 l 0.97327,-0.233483 V 30.784778 14.7802 l -0.47502,-0.495809 c -0.44585,-0.465371 -0.56523,-0.495809 -1.94454,-0.495809 h -1.46953 V 11.048543 8.3085047 h 8.04334 8.04334 v 2.7400383 2.740039 h -1.47179 c -1.30987,0 -1.51407,0.04501 -1.85615,0.409141 l -0.38437,0.409141 v 21.212931 21.212931 l 0.49581,0.475015 c 0.45028,0.431397 0.62072,0.475015 1.85615,0.475015 h 1.36035 v 2.65165 2.651651 l -6.76171,-0.0014 -6.76171,-0.0014 L 646.42421,44.50217 C 640.22379,34.172485 635.07943,25.607465 634.9923,25.468688 c -0.13386,-0.213203 -0.31138,-0.218089 -1.14507,-0.03152 l -0.98666,0.220804 v 15.687376 15.687374 l 0.49581,0.475015 c 0.46037,0.441068 0.60565,0.475015 2.03293,0.475015 h 1.53712 v 2.65165 2.651651 h -8.22012 -8.22011 z"
         id="path5897"
         transform="scale(0.26458333)" /><path
         style="fill:#ffffff;fill-opacity:1;stroke:#ffffff;stroke-width:0.334066;stroke-linejoin:bevel;stroke-dasharray:none;stroke-opacity:1"
         d="m 680.05994,60.634406 v -2.65165 h 1.46953 c 1.37932,0 1.49869,-0.03044 1.94455,-0.495809 l 0.47501,-0.495809 V 35.774229 14.557318 l -0.40914,-0.384368 c -0.35524,-0.333733 -0.61141,-0.384368 -1.94454,-0.384368 h -1.53541 V 11.048543 8.3085047 h 19.0035 19.00349 v 3.9774753 3.977476 h -2.65165 -2.65165 v -0.853069 c 0,-0.663136 -0.0911,-0.938647 -0.40914,-1.237437 l -0.40914,-0.384368 h -9.28974 c -9.1305,0 -9.29772,0.0063 -9.75551,0.366384 l -0.46579,0.366384 v 8.772137 8.772137 l 0.47502,0.495809 0.47501,0.495809 h 4.97425 c 4.97096,0 4.9745,-3.54e-4 5.35862,-0.409141 0.28174,-0.299896 0.38437,-0.630304 0.38437,-1.237437 v -0.828296 h 2.65165 2.65165 v 5.214913 5.214912 h -2.65165 -2.65165 v -0.853069 c 0,-0.663136 -0.0911,-0.938647 -0.40915,-1.237437 -0.39996,-0.375744 -0.52017,-0.384368 -5.35861,-0.384368 h -4.94948 l -0.47501,0.49581 -0.47502,0.495809 v 8.751894 8.751894 l 0.49581,0.475015 0.49581,0.475015 h 9.19384 9.19383 l 0.47502,-0.495809 c 0.37766,-0.394191 0.47501,-0.665925 0.47501,-1.325825 v -0.830017 h 2.65165 2.65165 v 3.977476 3.977476 h -19.00349 -19.0035 z"
         id="path5899"
         transform="scale(0.26458333)" /><path
         style="fill:#ffffff;fill-opacity:1;stroke:#ffffff;stroke-width:0.334066;stroke-linejoin:bevel;stroke-dasharray:none;stroke-opacity:1"
         d="m 730.83758,59.351333 -3.93181,-3.934722 v -2.782793 -2.78279 h 4.22655 4.22655 l 0.0603,1.861987 0.0603,1.861987 2.22972,2.210024 2.22972,2.210023 6.74732,-0.05034 6.74732,-0.05034 2.20408,-2.223521 2.20409,-2.22352 -0.0124,-5.024324 c -0.007,-2.763379 -0.0665,-5.152765 -0.13258,-5.30975 -0.0661,-0.156985 -1.09135,-1.211016 -2.27837,-2.342291 l -2.15822,-2.056866 h -9.25744 -9.25743 l -3.91973,-4.050009 -3.91972,-4.050009 v -7.218064 -7.218063 l 3.93181,-3.934723 3.93181,-3.9347233 h 11.84698 11.84699 l 3.9318,3.9347233 3.93181,3.934723 v 2.959568 2.959568 h -4.24264 -4.24264 V 20.22931 c 0,-1.027277 -0.0787,-2.014785 -0.17484,-2.194462 -0.0962,-0.179677 -1.12728,-1.208591 -2.29139,-2.286475 l -2.11656,-1.959791 h -6.75407 -6.75407 l -2.13566,2.115432 -2.13566,2.115431 -0.0516,5.308701 -0.0516,5.308701 2.05939,2.166004 c 1.13266,1.191302 2.26959,2.261851 2.5265,2.379001 0.3443,0.156995 2.86115,0.215093 9.57262,0.220971 l 9.10551,0.008 3.84338,3.846368 3.84339,3.846365 v 7.159457 7.159456 l -3.93472,3.931807 -3.93472,3.931809 h -11.84407 -11.84407 z"
         id="path5901"
         transform="scale(0.26458333)" /><path
         style="fill:#ffffff;fill-opacity:1;stroke:#ffffff;stroke-width:0.334066;stroke-linejoin:bevel;stroke-dasharray:none;stroke-opacity:1"
         d="m 789.6615,60.546018 v -2.563262 h 1.37953 c 1.32841,0 1.40048,-0.02161 1.94454,-0.582941 l 0.56501,-0.582939 V 35.798538 14.7802 l -0.47501,-0.495809 -0.47502,-0.495809 h -5.5907 -5.59071 l -0.47502,0.495809 c -0.43139,0.450281 -0.47501,0.620723 -0.47501,1.856155 v 1.360347 h -2.56326 -2.56327 V 12.904699 8.3085047 h 22.45064 22.45064 v 4.5961943 4.596194 h -2.74003 -2.74004 v -1.471787 c 0,-1.309876 -0.045,-1.514072 -0.40914,-1.856156 -0.4022,-0.377845 -0.50364,-0.384368 -5.97734,-0.384368 h -5.56819 l -0.47502,0.495809 -0.47501,0.495809 v 21.03627 21.036271 l 0.58294,0.565007 c 0.55315,0.536135 0.65252,0.565008 1.94454,0.565008 h 1.3616 v 2.563262 2.563262 h -8.04333 -8.04334 z"
         id="path5903"
         transform="scale(0.26458333)" /><path
         style="fill:#ffffff;fill-opacity:1;stroke:#ffffff;stroke-width:0.334066;stroke-linejoin:bevel;stroke-dasharray:none;stroke-opacity:1"
         d="m 827.66848,60.634406 v -2.65165 h 1.47179 c 1.30988,0 1.51407,-0.04501 1.85616,-0.409141 l 0.38437,-0.409141 V 35.860896 14.557318 l -0.40915,-0.384368 c -0.35128,-0.330013 -0.61377,-0.384368 -1.85615,-0.384368 h -1.44702 V 11.048543 8.3085047 h 16.39752 16.39751 l 3.93181,3.9347233 3.9318,3.934723 v 6.187882 6.187881 l -2.74003,2.735761 c -2.62839,2.624285 -2.74004,2.764749 -2.74004,3.447146 0,0.682396 0.11165,0.82286 2.74004,3.447145 l 2.74003,2.735761 v 8.035805 8.035806 l 0.47502,0.495809 c 0.44585,0.465371 0.56523,0.495809 1.94454,0.495809 h 1.46953 v 2.65165 2.651651 h -6.1832 -6.1832 l -0.0482,-10.782558 -0.0482,-10.782557 -2.16626,-2.166336 -2.16626,-2.166335 -7.18716,-0.05002 -7.18716,-0.05001 -0.50188,0.480834 -0.50189,0.480836 v 9.482055 9.482052 l 0.40914,0.38437 c 0.35129,0.330012 0.61377,0.384367 1.85616,0.384367 h 1.44701 v 2.65165 2.651651 h -8.04334 -8.04334 z M 856.1115,31.333669 c 0.37147,-0.364602 1.36648,-1.39608 2.21114,-2.292171 l 1.53575,-1.629261 -0.0525,-4.69644 -0.0525,-4.696441 -2.13567,-2.115387 -2.13566,-2.115387 h -7.3105 c -7.26256,0 -7.31318,0.0025 -7.71964,0.384368 l -0.40914,0.384368 v 8.310491 c 0,8.289276 9.9e-4,8.311536 0.38437,8.719632 l 0.38437,0.409141 h 7.31226 7.31227 z"
         id="path5905"
         transform="scale(0.26458333)" /><path
         style="fill:#ffffff;fill-opacity:1;stroke:#ffffff;stroke-width:0.334066;stroke-linejoin:bevel;stroke-dasharray:none;stroke-opacity:1"
         d="m 884.8985,59.262976 -4.02023,-4.02308 V 35.794429 16.348962 l 4.02308,-4.020229 4.02308,-4.0202283 h 11.75568 11.75568 l 4.02023,4.0230803 4.02023,4.023081 V 35.800132 55.2456 l -4.02308,4.020228 -4.02308,4.020229 h -11.75568 -11.75568 z m 24.69266,-3.573017 2.31142,-2.292799 0.047,-17.28522 c 0.033,-12.109212 -0.0103,-17.423898 -0.14449,-17.748329 -0.10534,-0.254709 -1.12825,-1.388289 -2.27313,-2.519068 l -2.0816,-2.055961 h -6.77571 -6.77571 l -2.22352,2.204262 -2.22352,2.204262 v 17.573978 17.573979 l 1.9627,2.097875 c 1.07949,1.153832 2.15341,2.196141 2.38649,2.316241 0.31354,0.16156 2.12178,0.219043 6.9512,0.220971 l 6.52741,0.0026 z"
         id="path5909"
         transform="scale(0.26458333)" /><path
         style="fill:#ffffff;fill-opacity:1;stroke:#ffffff;stroke-width:0.334066;stroke-linejoin:bevel;stroke-dasharray:none;stroke-opacity:1"
         d="m 269.76124,190.65367 v -5.03814 l 1.72357,-8.8e-4 c 1.52848,-7.1e-4 1.77664,-0.0458 2.19241,-0.39775 0.40186,-0.34017 2.14909,-5.42597 12.22891,-35.59563 l 11.76007,-35.19876 -0.4573,-0.64271 -0.4573,-0.64272 h -2.97697 -2.97697 v -5.12652 -5.12652 h 21.56676 21.56676 v 5.12652 5.12652 h -3.41892 -3.41891 l -0.4573,0.64272 -0.4573,0.64272 11.76069,35.19876 c 10.06985,30.13821 11.82801,35.25581 12.22891,35.59562 0.41528,0.35199 0.66313,0.39697 2.1918,0.39775 l 1.72357,8.8e-4 v 5.03814 5.03813 H 340.5603 327.03689 v -5.03813 -5.03814 l 2.51906,-0.004 2.51907,-0.004 0.48001,-0.67886 0.48002,-0.67887 -2.82511,-8.47329 c -2.60629,-7.81701 -2.86465,-8.49665 -3.33571,-8.77491 -0.47009,-0.27769 -1.65668,-0.30163 -14.95175,-0.30163 -13.29507,0 -14.48166,0.0239 -14.95175,0.30163 -0.47107,0.27826 -0.72943,0.9579 -3.33572,8.77491 l -2.8251,8.47329 0.48001,0.67887 0.48001,0.67886 2.43068,0.004 2.43068,0.004 v 5.03814 5.03813 h -13.43502 -13.43503 z m 54.32084,-31.1754 0.45094,-0.68141 -5.76813,-17.4382 -5.76813,-17.4382 h -1.00605 -1.00605 l -5.82575,17.45424 -5.82575,17.45423 0.44033,0.66538 0.44032,0.66538 h 11.70867 11.70867 z"
         id="path5913"
         transform="scale(0.26458333)" /><path
         style="fill:#ffffff;fill-opacity:1;stroke:#ffffff;stroke-width:0.334066;stroke-linejoin:bevel;stroke-dasharray:none;stroke-opacity:1"
         d="m 376.53436,190.65367 v -5.03814 h 2.68617 c 2.67426,0 2.68837,-0.002 3.18198,-0.47502 l 0.49581,-0.47501 v -35.37984 -35.37984 l -0.40914,-0.38437 c -0.38418,-0.36091 -0.57834,-0.38437 -3.18198,-0.38437 h -2.77284 v -5.12652 -5.12652 h 27.97578 27.97579 l 6.67245,6.67418 6.67244,6.67418 v 10.60701 10.60702 l -4.59619,4.59364 -4.59619,4.59365 v 0.79804 0.79805 l 4.59619,4.59364 4.59619,4.59365 v 13.6034 13.60341 l 0.47502,0.49581 0.47501,0.49581 h 2.70697 2.70697 v 5.03814 5.03813 H 441.23463 430.27448 V 177.7384 159.785 l -2.62763,-2.77367 c -1.44519,-1.52551 -3.03277,-3.15152 -3.52796,-3.61335 l -0.90034,-0.83969 h -11.88613 -11.88613 l -0.49581,0.47501 -0.49581,0.47502 v 15.4886 15.48859 l 0.58294,0.56501 0.58294,0.56501 h 2.68743 2.68743 v 5.03814 5.03813 h -14.23053 -14.23052 z m 46.83326,-48.51848 c 0.17475,-0.0935 1.80029,-1.71912 3.6123,-3.61242 l 3.29456,-3.44236 v -7.47121 -7.47121 l -3.44342,-3.45626 -3.44342,-3.45626 -11.96686,-0.0478 -11.96686,-0.0479 -0.49962,0.47867 -0.49963,0.47867 v 13.61326 13.61325 l 0.47501,0.49581 0.47502,0.49581 h 11.82259 c 7.23188,0 11.94596,-0.066 12.14033,-0.17005 z"
         id="path5917"
         transform="scale(0.26458333)" /><path
         style="fill:#ffffff;fill-opacity:1;stroke:#ffffff;stroke-width:0.334066;stroke-linejoin:bevel;stroke-dasharray:none;stroke-opacity:1"
         d="m 481.14112,188.84086 -6.84925,-6.85093 v -32.7921 -32.7921 l 6.76256,-6.76085 6.76256,-6.76084 h 20.0921 20.0921 l 6.64181,6.7617 6.6418,6.76171 0.003,6.76171 0.003,6.76171 h -7.77818 -7.77817 v -4.77448 -4.77447 l -1.39455,-1.54529 c -0.767,-0.84991 -2.34548,-2.48 -3.50772,-3.62242 l -2.11317,-2.07713 h -10.8448 -10.84481 l -3.33875,3.31457 c -1.83631,1.82301 -3.45195,3.52937 -3.59031,3.79192 -0.21455,0.40713 -0.25156,4.68012 -0.25156,29.04719 0,20.80986 0.054,28.67472 0.1988,28.95596 0.23497,0.45638 6.44646,6.82931 6.96066,7.14157 0.26685,0.16206 2.93277,0.21471 10.87176,0.21471 7.92325,0 10.61252,-0.053 10.90045,-0.21471 0.33102,-0.18593 2.93928,-2.86024 6.02592,-6.1785 l 0.92808,-0.99772 v -4.51839 -4.51838 h 7.77817 7.77818 v 6.46683 6.46684 l -6.67332,6.79032 -6.67332,6.79032 -19.97662,0.001 -19.97661,0.001 z"
         id="path5921"
         transform="scale(0.26458333)" /><path
         style="fill:#ffffff;fill-opacity:1;stroke:#ffffff;stroke-width:0.334066;stroke-linejoin:bevel;stroke-dasharray:none;stroke-opacity:1"
         d="m 563.74088,190.65367 v -5.03814 h 2.68617 c 2.67426,0 2.68837,-0.002 3.18198,-0.47502 l 0.49581,-0.47501 v -35.28919 -35.2892 l -0.49581,-0.47501 c -0.49361,-0.47291 -0.50772,-0.47502 -3.18198,-0.47502 h -2.68617 v -5.12652 -5.12652 h 32.26175 32.26174 v 7.15945 7.15946 h -5.12652 -5.12653 v -1.64857 c 0,-1.49465 -0.0382,-1.68444 -0.40914,-2.03293 l -0.40914,-0.38437 h -15.27011 -15.27012 l -0.49581,0.47502 -0.49581,0.47501 v 14.60858 14.60858 l 0.40914,0.38437 c 0.40783,0.38314 0.43514,0.38437 8.5406,0.38437 h 8.13145 l 0.47502,-0.49581 c 0.44107,-0.46038 0.47501,-0.60566 0.47501,-2.03293 v -1.53713 h 5.03814 5.03813 v 9.36917 9.36916 h -5.03813 -5.03814 v -1.73469 c 0,-1.66984 -0.0185,-1.75245 -0.49581,-2.20971 l -0.49581,-0.47502 h -8.02399 -8.02399 l -0.49581,0.47502 -0.49581,0.47501 V 169.95 184.62391 l 0.47501,0.49581 0.47502,0.49581 h 15.20424 15.20425 l 0.49581,-0.47502 c 0.47727,-0.45725 0.4958,-0.53987 0.4958,-2.2097 v -1.7347 h 5.12653 5.12652 v 7.24785 7.24784 h -32.26174 -32.26175 z"
         id="path5923"
         transform="scale(0.26458333)" /><path
         style="fill:#ffffff;fill-opacity:1;stroke:#ffffff;stroke-width:0.334066;stroke-linejoin:bevel;stroke-dasharray:none;stroke-opacity:1"
         d="m 650.53824,190.65367 v -5.03814 h 2.70536 2.70536 l 0.56501,-0.58294 0.565,-0.58294 v -35.18127 -35.18127 l -0.4958,-0.47501 c -0.49503,-0.47427 -0.50019,-0.47502 -3.27037,-0.47502 h -2.77456 v -5.12652 -5.12652 h 14.23052 14.23052 v 5.12652 5.12652 h -2.77456 c -2.77018,0 -2.77534,7.5e-4 -3.27036,0.47502 l -0.49581,0.47501 v 35.1992 35.1992 l 0.58294,0.56501 0.58294,0.56501 h 15.44987 15.44987 l 0.49581,-0.47502 0.49581,-0.47501 v -2.70697 -2.70696 h 5.12652 5.12653 v 8.22011 8.22012 h -32.6153 -32.6153 z"
         id="path5925"
         transform="scale(0.26458333)" /><path
         style="fill:#ffffff;fill-opacity:1;stroke:#ffffff;stroke-width:0.334066;stroke-linejoin:bevel;stroke-dasharray:none;stroke-opacity:1"
         d="m 735.7446,190.65367 v -5.03814 h 2.68618 c 2.67426,0 2.68837,-0.002 3.18198,-0.47502 l 0.4958,-0.47501 v -35.28919 -35.2892 l -0.4958,-0.47501 c -0.49361,-0.47291 -0.50772,-0.47502 -3.18198,-0.47502 h -2.68618 v -5.12652 -5.12652 h 14.14214 14.14213 v 5.12652 5.12652 h -2.68617 c -2.67426,0 -2.68837,0.002 -3.18198,0.47502 l -0.49581,0.47501 v 35.2684 35.2684 l 0.47502,0.49581 0.47501,0.49581 h 15.46941 15.46941 l 0.49581,-0.47502 0.49581,-0.47501 v -2.70697 -2.70696 h 5.12652 5.12653 v 8.22011 8.22012 H 768.27152 735.7446 Z"
         id="path5927"
         transform="scale(0.26458333)" /><path
         style="fill:#ffffff;fill-opacity:1;stroke:#ffffff;stroke-width:0.334066;stroke-linejoin:bevel;stroke-dasharray:none;stroke-opacity:1"
         d="m 820.95097,190.65367 v -5.03814 l 1.72357,-8.8e-4 c 1.52374,-7.1e-4 1.77978,-0.0469 2.20832,-0.39775 0.42591,-0.3487 1.91008,-4.66582 12.23039,-35.57543 l 11.74565,-35.17856 -0.43306,-0.66291 -0.43305,-0.66292 h -3.0027 -3.00269 v -5.12652 -5.12652 h 21.56675 21.56676 v 5.12652 5.12652 l -3.40295,0.001 -3.40295,0.001 -0.39775,0.58425 c -0.21876,0.32134 -0.39775,0.67348 -0.39775,0.78253 0,0.10905 5.26223,15.97425 11.69383,35.25601 9.9043,29.69278 11.76416,35.11764 12.1534,35.44913 0.40806,0.34753 0.66265,0.3921 2.27153,0.39775 l 1.81196,0.006 v 5.03814 5.03813 H 891.92681 878.4034 v -5.03813 -5.03814 h 2.45138 2.45138 l 0.45693,-0.69047 0.45694,-0.69047 -2.80793,-8.41967 c -2.15253,-6.45444 -2.90357,-8.49939 -3.21767,-8.7612 -0.39754,-0.33136 -0.84496,-0.34171 -15.01418,-0.34742 -14.36451,-0.006 -14.61185,-4e-5 -15.05606,0.34937 -0.37358,0.29386 -0.92751,1.78293 -3.20582,8.61788 -1.51481,4.54445 -2.7542,8.36318 -2.7542,8.48607 0,0.12289 0.17899,0.49975 0.39775,0.83748 l 0.39775,0.61405 2.43068,0.002 2.43068,0.002 v 5.03814 5.03813 H 834.386 820.95097 Z m 54.33304,-31.16387 0.46423,-0.66989 -4.77907,-14.48871 c -2.6285,-7.9688 -5.21968,-15.82117 -5.75818,-17.44973 l -0.97909,-2.96101 -1.00179,10e-4 -1.00178,0.001 -5.79356,17.27892 c -3.18645,9.5034 -5.7917,17.39331 -5.78943,17.53314 0.002,0.13982 0.1831,0.51714 0.40186,0.83848 l 0.39775,0.58426 11.68741,0.001 11.68742,10e-4 0.46423,-0.66989 z"
         id="path5931"
         transform="scale(0.26458333)" /><path
         style="fill:#ffffff;fill-opacity:1;stroke:#ffffff;stroke-width:0.472441;stroke-linejoin:bevel;stroke-dasharray:none;stroke-opacity:1"
         d="m 440.5,274.5 v -2 h 1.08142 c 0.80716,0 1.21928,-0.14675 1.625,-0.57861 l 0.54358,-0.57862 v -17.62781 -17.6278 l -0.57861,-0.54358 C 442.76757,235.16421 442.27666,235 441.54639,235 H 440.5 v -2 -2 h 15.625 15.625 v 3.125 3.125 h -2 c -1.92669,0 -2,-0.0213 -2,-0.58142 0,-0.31978 -0.26038,-0.82603 -0.57861,-1.125 C 466.60341,235.00999 466.45254,235 458.96496,235 h -7.6278 l -0.54358,0.57861 c -0.53232,0.56663 -0.54358,0.72887 -0.54358,7.83142 v 7.25281 l 0.57861,0.54358 c 0.5459,0.51285 0.81225,0.54358 4.71125,0.54358 3.68614,0 4.17735,-0.0494 4.54639,-0.45719 0.22756,-0.25145 0.41375,-0.7577 0.41375,-1.125 V 249.5 h 2 2 v 4.125 4.125 h -2 c -1.93142,0 -2,-0.0201 -2,-0.58625 0,-1.25679 -0.55941,-1.41375 -5.03861,-1.41375 -5.70968,0 -5.21139,-0.80413 -5.21139,8.41003 v 7.25281 l 0.57861,0.54358 c 0.56798,0.53359 0.71885,0.54358 8.20642,0.54358 h 7.62781 l 0.54358,-0.57861 c 0.29897,-0.31824 0.54358,-0.82449 0.54358,-1.125 0,-0.51632 0.11007,-0.54639 2,-0.54639 h 2 v 3.125 3.125 H 456.125 440.5 Z"
         id="path5933"
         transform="scale(0.26458333)" /><path
         style="fill:#ffffff;fill-opacity:1;stroke:#ffffff;stroke-width:0.472441;stroke-linejoin:bevel;stroke-dasharray:none;stroke-opacity:1"
         d="M 481.05803,274.43323 478.5,271.86646 V 270.30823 268.75 h 2.5 2.5 v 1.21037 c 0,1.16131 0.065,1.27279 1.60336,2.75 l 1.60336,1.53963 h 4.56474 4.56475 l 1.70689,-1.7069 1.7069,-1.70689 v -3.44551 -3.4455 l -1.6115,-1.6601 -1.61149,-1.6601 -6.37895,-0.0745 -6.37894,-0.0745 -2.38263,-2.55053 -2.38263,-2.55053 -0.002,-4.62969 -0.002,-4.62969 2.44197,-2.43281 2.44197,-2.43281 h 7.87522 7.87522 l 2.43281,2.44197 2.43281,2.44197 v 1.68303 1.68303 h -2.34319 -2.3432 l -0.11986,-1.24742 c -0.11078,-1.15293 -0.241,-1.36038 -1.71931,-2.73893 l -1.59944,-1.49151 -4.63222,-0.0111 -4.63223,-0.0111 -1.55527,1.56923 -1.55528,1.56922 v 3.7505 3.75049 l 1.56922,1.55528 1.56923,1.55528 h 6.12274 6.12274 l 2.55804,2.56677 2.55803,2.56677 v 4.50019 4.5002 l -2.56677,2.55804 L 498.86646,277 h -7.6252 -7.6252 z"
         id="path5935"
         transform="scale(0.26458333)" /><path
         style="fill:#ffffff;fill-opacity:1;stroke:#ffffff;stroke-width:0.472441;stroke-linejoin:bevel;stroke-dasharray:none;stroke-opacity:1"
         d="m 520,275.625 c 0,-1.34226 0.0168,-1.375 0.70642,-1.375 0.41517,0 0.93053,-0.23856 1.25,-0.57861 L 522.5,273.09277 v -14.13264 c 0,-13.37397 -0.0245,-14.15485 -0.45719,-14.54638 C 521.65875,244.06617 520.96524,244 517.70656,244 513.37452,244 513,244.13585 513,245.70718 V 246.5 h -1.375 -1.375 v -2.625 -2.625 h 14.625 14.625 v 2.625 2.625 h -1.375 c -1.34226,0 -1.375,-0.0168 -1.375,-0.70642 0,-0.41517 -0.23856,-0.93053 -0.57861,-1.25 C 535.63029,244.03525 535.34911,244 531.83513,244 c -3.32284,0 -3.80551,0.0529 -4.17138,0.45718 -0.37472,0.41406 -0.41375,1.78951 -0.41375,14.58143 v 14.12423 l 0.57861,0.54358 c 0.31824,0.29897 0.88074,0.54358 1.25,0.54358 0.64714,0 0.67139,0.0497 0.67139,1.375 V 277 H 524.875 520 Z"
         id="path5937"
         transform="scale(0.26458333)" /><path
         style="fill:#ffffff;fill-opacity:1;stroke:#ffffff;stroke-width:0.472441;stroke-linejoin:bevel;stroke-dasharray:none;stroke-opacity:1"
         d="m 544.75,275.625 v -1.375 h 0.83625 c 1.73985,0 1.66375,0.6938 1.66375,-15.16844 0,-13.49161 -0.0245,-14.2762 -0.45719,-14.66781 C 546.54136,244.18619 545.97886,244 545.54281,244 H 544.75 v -1.375 -1.375 h 10.69219 10.69219 l 2.43281,2.44197 2.43281,2.44197 v 13.00022 13.00022 l -2.44197,2.43281 L 566.11605,277 H 555.43303 544.75 Z m 19.80023,-3.08903 1.71402,-1.71402 -0.0696,-11.92501 -0.0696,-11.925 -1.53761,-1.48597 L 563.04978,244 h -4.94271 c -4.2484,0 -5.00692,0.0581 -5.39989,0.41375 -0.43273,0.39161 -0.45718,1.1762 -0.45718,14.66781 0,12.91273 0.0389,14.29709 0.41375,14.71125 0.3739,0.41317 0.88356,0.45719 5.2931,0.45719 h 4.87936 z"
         id="path5943"
         transform="scale(0.26458333)" /><path
         style="fill:#ffffff;fill-opacity:1;stroke:#ffffff;stroke-width:0.472441;stroke-linejoin:bevel;stroke-dasharray:none;stroke-opacity:1"
         d="m 605,274.5 v -2 h 2.83625 c 2.43022,0 2.89549,-0.0654 3.25,-0.45719 0.37507,-0.41445 0.41375,-1.82458 0.41375,-15.08625 0,-13.8549 -0.0242,-14.65096 -0.45719,-15.04281 -0.36798,-0.33303 -1.00208,-0.41375 -3.25,-0.41375 H 605 v -1.44053 -1.44052 l 3.81543,-3.80948 L 612.63086,231 h 2.80957 2.80957 v 20.20642 20.20642 l 0.57861,0.54358 c 0.49679,0.46671 0.868,0.54358 2.625,0.54358 H 623.5 v 2 2 H 614.25 605 Z"
         id="path5947"
         transform="scale(0.26458333)" /><path
         style="fill:#ffffff;fill-opacity:1;stroke:#ffffff;stroke-width:0.472441;stroke-linejoin:bevel;stroke-dasharray:none;stroke-opacity:1"
         d="M 633.43415,273.05926 630,269.61853 V 268.43426 267.25 h 3.375 3.375 v 0.65653 c 0,0.47949 0.50244,1.17048 1.86325,2.5625 l 1.86326,1.90597 h 6.39849 6.39848 l 1.86326,-1.90597 L 657,268.56306 v -6.36779 c 0,-5.8515 -0.0371,-6.40132 -0.45719,-6.78152 C 656.13367,255.04347 655.04971,255 646.22671,255 h -9.85893 L 633.18389,251.80902 630,248.61805 v -5.49318 -5.49317 l 3.30902,-3.31585 L 636.61805,231 h 10.38208 10.38208 l 3.1839,3.19098 3.18389,3.19097 v 16.24317 16.24318 l -3.30903,3.31585 -3.30902,3.31585 H 647.00012 636.8683 Z M 655.18558,249.11969 657,247.23939 v -4.16515 -4.16515 L 655.04545,236.95454 653.09091,235 h -6.21591 -6.21591 l -1.95455,1.95454 -1.95454,1.95455 v 4.10242 4.10243 l 1.93163,1.94303 1.93164,1.94303 h 6.37894 6.37895 z"
         id="path5949"
         transform="scale(0.26458333)" /><path
         style="fill:#ffffff;fill-opacity:1;stroke:#ffffff;stroke-width:0.472441;stroke-linejoin:bevel;stroke-dasharray:none;stroke-opacity:1"
         d="m 671,273.18651 v -3.31348 L 682.875,258 694.75,246.12697 v -3.64513 -3.64513 l -1.98732,-1.93395 -1.98731,-1.93395 -4.65003,0.0781 -4.65002,0.0781 -1.86266,1.90597 -1.86266,1.90597 v 1.65653 1.65653 H 674.375 671 v -2.30915 -2.30915 l 3.30902,-3.31585 L 677.61805,231 h 8.63195 8.63194 l 3.30903,3.31585 3.30903,3.31585 v 5.24555 5.24554 l -10.37606,10.37827 -10.37606,10.37826 0.30587,0.81034 0.30587,0.81034 H 691.42981 701.5 v 3 3 H 686.25 671 Z"
         id="path5953"
         transform="scale(0.26458333)" /><path
         style="fill:#ffffff;fill-opacity:1;stroke:#ffffff;stroke-width:0.472441;stroke-linejoin:bevel;stroke-dasharray:none;stroke-opacity:1"
         d="m 708.75,273.19097 v -3.30903 l 11.875,-11.88455 11.875,-11.88454 v -3.63807 -3.63807 L 730.52871,236.91835 728.55742,235 h -4.57417 -4.57416 l -1.95455,1.95454 -1.95454,1.95455 v 1.67045 1.67046 h -3.375 -3.375 v -2.30915 -2.30915 l 3.30902,-3.31585 L 715.36805,231 H 724 h 8.63194 l 3.30903,3.31585 3.30903,3.31585 v 5.24555 5.24554 l -10.37606,10.37827 -10.37606,10.37826 0.30587,0.81034 0.30587,0.81034 H 729.17981 739.25 v 3 3 H 724 708.75 Z"
         id="path5955"
         transform="scale(0.26458333)" /></g><g
       id="group-R5"
       transform="matrix(0.13018088,0,0,0.13018088,0,5.188439e-4)"><path
         id="path2"
         d="m 1784.28,20 c 1740.36,844.84 1764.6,2238.83 1764.6,2238.83 v 1512.26 c 0,0 -531.5,291.96 -897.46,403.5 -364.14,111.02 -586.92,137.44 -868.5,137.44 -281.56,0 -499.57,-32.34 -865.451,-137.44 C 540.047,4066.19 20,3771.09 20,3771.09 V 2258.83 C 20,2258.83 44.4023,864.84 1784.77,20 h -0.49"
         style="fill:#bf8d1e;fill-opacity:1;fill-rule:nonzero;stroke:none"
         transform="matrix(0.13333333,0,0,-0.13333333,0,577.6)" /><path
         id="path3"
         d="m 1784.28,20 c 1740.36,844.84 1764.6,2238.83 1764.6,2238.83 v 1512.26 c 0,0 -531.5,291.96 -897.46,403.5 -364.14,111.02 -586.92,137.44 -868.5,137.44 -281.56,0 -499.57,-32.34 -865.451,-137.44 C 540.047,4066.19 20,3771.09 20,3771.09 V 2258.83 C 20,2258.83 44.4023,864.84 1784.77,20 Z"
         style="fill:none;stroke:#231f20;stroke-width:40;stroke-linecap:butt;stroke-linejoin:round;stroke-miterlimit:4;stroke-dasharray:none;stroke-opacity:1"
         transform="matrix(0.13333333,0,0,-0.13333333,0,577.6)" /><path
         id="path4"
         d="M 1783.9,146.422 C 3429.85,945.43 3452.78,2263.79 3452.78,2263.79 v 1430.23 c 0,0 -502.67,276.12 -848.79,381.62 -344.37,104.99 -555.07,129.99 -821.36,129.99 -266.31,0 -472.49,-30.59 -818.509,-129.99 C 607.168,3973.11 115.332,3694.02 115.332,3694.02 V 2263.79 c 0,0 23.066,-1318.36 1669.028,-2117.368 h -0.46"
         style="fill:#ffffff;fill-opacity:1;fill-rule:nonzero;stroke:none"
         transform="matrix(0.13333333,0,0,-0.13333333,0,577.6)" /><path
         id="path5"
         d="M 1783.9,146.422 C 3429.85,945.43 3452.78,2263.79 3452.78,2263.79 v 1430.23 c 0,0 -502.67,276.12 -848.79,381.62 -344.37,104.99 -555.07,129.99 -821.36,129.99 -266.31,0 -472.49,-30.59 -818.509,-129.99 C 607.168,3973.11 115.332,3694.02 115.332,3694.02 V 2263.79 c 0,0 23.066,-1318.36 1669.028,-2117.368 z"
         style="fill:none;stroke:#231f20;stroke-width:40;stroke-linecap:butt;stroke-linejoin:miter;stroke-miterlimit:4;stroke-dasharray:none;stroke-opacity:1"
         transform="matrix(0.13333333,0,0,-0.13333333,0,577.6)" /><path
         id="path6"
         d="M 3188.14,1415.03 127.52,3701.37 c -8.528,-4.75 -13.106,-7.35 -13.106,-7.35 V 2263.79 c 0,0 23.066,-1318.231 1668.796,-2117.251 766.39,372.09 1180.82,856.761 1404.93,1268.491 z M 1783.45,146.422 c -0.08,0.039 -0.16,0.078 -0.24,0.117 -0.08,-0.039 -0.15,-0.078 -0.23,-0.117 h 0.47"
         style="fill:#231f20;fill-opacity:1;fill-rule:nonzero;stroke:none"
         transform="matrix(0.13333333,0,0,-0.13333333,0,577.6)" /><path
         id="path7"
         d="M 69.2969,3755.25 3239.06,1366.66"
         style="fill:none;stroke:#bf8d1e;stroke-width:69.6547;stroke-linecap:butt;stroke-linejoin:round;stroke-miterlimit:4;stroke-dasharray:none;stroke-opacity:1"
         transform="matrix(0.13333333,0,0,-0.13333333,0,577.6)" /><path
         id="path8"
         d="m 865.945,665.309 c 71.907,0 143.815,0 215.725,0 5.53,0 45.13,6.832 45.13,12.691 0,33.691 0,67.379 0,101.07 -15.04,-4.23 -30.09,-8.461 -45.13,-12.679 105.26,0 210.52,0 315.78,0 5.53,0 45.13,6.82 45.13,12.679 0,28.071 0,56.141 0,84.219 -15.04,-4.23 -30.09,-8.457 -45.13,-12.687 69.83,0 139.67,0 209.5,0 5.72,0 44.89,6.57 45.13,12.687 4.53,111.93 56.88,308.671 195.01,311.961 8.84,0.21 40.63,4.25 45.13,12.69 8.18,15.31 16.36,30.62 24.53,45.94 -15.36,-4.13 -30.73,-8.25 -46.1,-12.37 10.91,-17.2 18.38,-44.3 39.65,-47.45 29.57,-4.36 58,-14.89 84.49,-28.49 110.01,-56.42 149.26,-177.07 150.86,-293.648 0.32,-0.113 0.64,-0.211 0.97,-0.32 52.47,-0.911 105.29,-2.563 157.75,0 5.58,0.257 45.14,6.628 45.14,12.687 0,34.5 0,69 0,103.5 0,26.223 20.83,45.701 35.27,67.021 -15.37,-4.12 -30.74,-8.24 -46.1,-12.36 9.68,-16.46 30.65,-38.79 30.65,-58.27 0,-34.321 0,-68.629 0,-102.938 0,-68.773 0,-137.543 0,-206.312 0.32,-0.11 0.65,-0.211 0.97,-0.321 88.08,0 176.16,0 264.24,0 13.99,0 35.44,13.012 44.16,13.012 -57.07,0 -114.15,0 -171.22,0 -28.54,0 -57.08,0 -85.62,0 -12.19,0 -6.43,17.309 -6.43,28.781 0,71.059 0,142.11 0,213.18 0,23.199 0,46.398 0,69.617 0,17.02 -22.04,40.981 -30.65,55.611 -2.46,4.17 -43.01,-7.79 -46.1,-12.36 -14.45,-21.31 -35.28,-40.798 -35.28,-67.009 0,-34.5 0,-69.011 0,-103.519 15.05,4.226 30.09,8.457 45.13,12.687 -14.67,-0.718 -29.38,-0.75 -44.07,-0.89 -20.53,-0.188 -41.06,-0.028 -61.58,0.14 -10.99,0.09 -51.04,-5.8 -51.34,15.75 -0.19,14.403 -1.58,28.762 -3.02,43.071 -7.44,74.011 -37.53,144.57 -91.79,196 -32.46,30.77 -74.01,51.31 -116.86,63.03 -10.83,2.96 -21.96,5.15 -33.12,6.38 -8.11,0.89 -24.87,37.69 -30,45.79 -2.52,3.97 -43.54,-7.57 -46.1,-12.37 -8.18,-15.31 -16.36,-30.62 -24.53,-45.94 15.04,4.23 30.09,8.46 45.13,12.69 -95.82,-2.28 -179.36,-42.99 -228.28,-126.95 -35.92,-61.65 -54.11,-139.251 -56.99,-210.38 15.04,4.222 30.09,8.449 45.13,12.679 -69.83,0 -139.67,0 -209.5,0 -5.53,0 -45.13,-6.82 -45.13,-12.679 0,-28.071 0,-56.149 0,-84.219 15.04,4.23 30.09,8.449 45.13,12.68 -105.26,0 -210.52,0 -315.78,0 -5.53,0 -45.13,-6.821 -45.13,-12.68 0,-33.691 0,-67.391 0,-101.082 15.04,4.23 30.09,8.461 45.13,12.691 -71.9,0 -143.814,0 -215.725,0 -13.988,0 -35.433,-13.011 -44.16,-13.011 v 0"
         style="fill:#bf8d1e;fill-opacity:1;fill-rule:nonzero;stroke:none"
         transform="matrix(0.13333333,0,0,-0.13333333,0,577.6)" /><path
         id="path9"
         d="m 1872.86,1392.39 c 0,-38.56 0,-77.13 0,-115.7 0,0.83 46.11,5.28 46.11,12.36 0,38.57 0,77.13 0,115.7 0,-0.83 -46.11,-5.28 -46.11,-12.36 v 0"
         style="fill:#bf8d1e;fill-opacity:1;fill-rule:nonzero;stroke:none"
         transform="matrix(0.13333333,0,0,-0.13333333,0,577.6)" /><path
         id="path10"
         d="m 1811.72,1334.2 c 41.41,0 82.83,0 124.26,0 9.53,0 19.71,3.48 28.74,6.14 2.29,0.67 16.78,6.87 15.42,6.87 -41.42,0 -82.84,0 -124.26,0 -9.53,0 -19.72,-3.49 -28.74,-6.15 -2.3,-0.67 -16.79,-6.86 -15.42,-6.86 v 0"
         style="fill:#bf8d1e;fill-opacity:1;fill-rule:nonzero;stroke:none"
         transform="matrix(0.13333333,0,0,-0.13333333,0,577.6)" /><path
         id="path11"
         d="m 2334.42,3851.82 c 0,-43.93 -16.68,-79.52 -37.27,-79.52 -20.58,0 -37.27,35.59 -37.27,79.52 0,43.9 16.69,79.51 37.27,79.51 20.59,0 37.27,-35.61 37.27,-79.51"
         style="fill:#bf8d1e;fill-opacity:1;fill-rule:nonzero;stroke:none"
         transform="matrix(0.13333333,0,0,-0.13333333,0,577.6)" /><path
         id="path12"
         d="m 2532.55,3851.82 c 0,-43.93 -16.69,-79.52 -37.27,-79.52 -20.58,0 -37.28,35.59 -37.28,79.52 0,43.9 16.7,79.51 37.28,79.51 20.58,0 37.27,-35.61 37.27,-79.51"
         style="fill:#bf8d1e;fill-opacity:1;fill-rule:nonzero;stroke:none"
         transform="matrix(0.13333333,0,0,-0.13333333,0,577.6)" /><path
         id="path13"
         d="m 2730.68,3851.82 c 0,-43.93 -16.69,-79.52 -37.27,-79.52 -20.57,0 -37.27,35.59 -37.27,79.52 0,43.9 16.7,79.51 37.27,79.51 20.58,0 37.27,-35.61 37.27,-79.51"
         style="fill:#bf8d1e;fill-opacity:1;fill-rule:nonzero;stroke:none"
         transform="matrix(0.13333333,0,0,-0.13333333,0,577.6)" /><path
         id="path14"
         d="m 2334.42,2372.11 c 0,-43.91 -16.68,-79.51 -37.27,-79.51 -20.58,0 -37.27,35.6 -37.27,79.51 0,43.9 16.69,79.53 37.27,79.53 20.59,0 37.27,-35.63 37.27,-79.53"
         style="fill:#bf8d1e;fill-opacity:1;fill-rule:nonzero;stroke:none"
         transform="matrix(0.13333333,0,0,-0.13333333,0,577.6)" /><path
         id="path15"
         d="m 2532.55,2372.11 c 0,-43.91 -16.69,-79.51 -37.27,-79.51 -20.58,0 -37.28,35.6 -37.28,79.51 0,43.9 16.7,79.53 37.28,79.53 20.58,0 37.27,-35.63 37.27,-79.53"
         style="fill:#bf8d1e;fill-opacity:1;fill-rule:nonzero;stroke:none"
         transform="matrix(0.13333333,0,0,-0.13333333,0,577.6)" /><path
         id="path16"
         d="m 2730.68,2372.11 c 0,-43.91 -16.69,-79.51 -37.27,-79.51 -20.57,0 -37.27,35.6 -37.27,79.51 0,43.9 16.7,79.53 37.27,79.53 20.58,0 37.27,-35.63 37.27,-79.53"
         style="fill:#bf8d1e;fill-opacity:1;fill-rule:nonzero;stroke:none"
         transform="matrix(0.13333333,0,0,-0.13333333,0,577.6)" /><path
         id="path17"
         d="m 1747.97,2946.89 c 43.93,0 79.52,-16.7 79.52,-37.26 0,-20.61 -35.59,-37.29 -79.52,-37.29 -43.92,0 -79.51,16.68 -79.51,37.29 0,20.56 35.59,37.26 79.51,37.26"
         style="fill:#bf8d1e;fill-opacity:1;fill-rule:nonzero;stroke:none"
         transform="matrix(0.13333333,0,0,-0.13333333,0,577.6)" /><path
         id="path18"
         d="m 1747.97,3145.02 c 43.93,0 79.52,-16.68 79.52,-37.27 0,-20.54 -35.59,-37.24 -79.52,-37.24 -43.92,0 -79.51,16.7 -79.51,37.24 0,20.59 35.59,37.27 79.51,37.27"
         style="fill:#bf8d1e;fill-opacity:1;fill-rule:nonzero;stroke:none"
         transform="matrix(0.13333333,0,0,-0.13333333,0,577.6)" /><path
         id="path19"
         d="m 1747.97,3343.14 c 43.93,0 79.52,-16.68 79.52,-37.26 0,-20.59 -35.59,-37.27 -79.52,-37.27 -43.92,0 -79.51,16.68 -79.51,37.27 0,20.58 35.59,37.26 79.51,37.26"
         style="fill:#bf8d1e;fill-opacity:1;fill-rule:nonzero;stroke:none"
         transform="matrix(0.13333333,0,0,-0.13333333,0,577.6)" /><path
         id="path20"
         d="m 3232.09,2946.89 c 43.92,0 79.52,-16.7 79.52,-37.26 0,-20.61 -35.6,-37.29 -79.52,-37.29 -43.93,0 -79.51,16.68 -79.51,37.29 0,20.56 35.58,37.26 79.51,37.26"
         style="fill:#bf8d1e;fill-opacity:1;fill-rule:nonzero;stroke:none"
         transform="matrix(0.13333333,0,0,-0.13333333,0,577.6)" /><path
         id="path21"
         d="m 3232.09,3145.02 c 43.92,0 79.52,-16.68 79.52,-37.27 0,-20.54 -35.6,-37.24 -79.52,-37.24 -43.93,0 -79.51,16.7 -79.51,37.24 0,20.59 35.58,37.27 79.51,37.27"
         style="fill:#bf8d1e;fill-opacity:1;fill-rule:nonzero;stroke:none"
         transform="matrix(0.13333333,0,0,-0.13333333,0,577.6)" /><path
         id="path22"
         d="m 3232.09,3343.14 c 43.92,0 79.52,-16.68 79.52,-37.26 0,-20.59 -35.6,-37.27 -79.52,-37.27 -43.93,0 -79.51,16.68 -79.51,37.27 0,20.58 35.58,37.26 79.51,37.26"
         style="fill:#bf8d1e;fill-opacity:1;fill-rule:nonzero;stroke:none"
         transform="matrix(0.13333333,0,0,-0.13333333,0,577.6)" /><path
         id="path23"
         d="m 3108.74,3303.81 h -417.41 v 417.4 h -392.1 v -417.4 h -417.4 V 2911.7 h 417.4 v -417.4 h 392.1 v 417.4 h 417.41 v 392.11"
         style="fill:#ed1c24;fill-opacity:1;fill-rule:nonzero;stroke:none"
         transform="matrix(0.13333333,0,0,-0.13333333,0,577.6)" /><path
         id="path24"
         d="m 3108.74,3303.81 h -417.41 v 417.4 h -392.1 v -417.4 h -417.4 V 2911.7 h 417.4 v -417.4 h 392.1 v 417.4 h 417.41 z"
         style="fill:none;stroke:#bf8d1e;stroke-width:15.0729;stroke-linecap:butt;stroke-linejoin:miter;stroke-miterlimit:4;stroke-dasharray:none;stroke-opacity:1"
         transform="matrix(0.13333333,0,0,-0.13333333,0,577.6)" /><path
         id="path25"
         d="m 1453.28,424.492 v 164.61 h -23.44 v 23.718 l 46.87,23.442 h 23.72 v -211.77 h -47.15"
         style="fill:#ffffff;fill-opacity:1;fill-rule:nonzero;stroke:none"
         transform="matrix(0.13333333,0,0,-0.13333333,0,577.6)" /><path
         id="path26"
         d="M 1641.6,589.102 V 542.23 c 0,-6.398 2.31,-11.949 6.92,-16.66 4.61,-4.699 10.11,-7.05 16.52,-7.05 6.58,0 12.19,2.351 16.8,7.05 4.6,4.711 6.92,10.262 6.92,16.66 v 46.872 c 0,6.589 -2.32,12.187 -6.92,16.808 -4.61,4.61 -10.22,6.91 -16.8,6.91 -6.41,0 -11.91,-2.34 -16.52,-7.05 -4.61,-4.707 -6.92,-10.27 -6.92,-16.668 z m 47.16,-70.582 c -1.89,-15.629 -9.8,-23.43 -23.72,-23.43 h -23.44 c -12.79,0 -23.86,4.601 -33.17,13.82 -9.31,9.219 -13.98,20.34 -13.98,33.32 v 46.872 c 0,12.8 4.67,23.859 13.98,33.168 9.31,9.332 20.38,13.992 33.17,13.992 h 47.16 c 12.79,0 23.81,-4.66 33.04,-13.992 9.22,-9.309 13.82,-20.368 13.82,-33.168 V 506.93 c 0,-22.59 -8.04,-41.961 -24.13,-58.149 -16.1,-16.191 -35.44,-24.289 -58.03,-24.289 h -35.3 v 23.43 h 23.44 c 12.99,0 24.1,4.668 33.32,13.98 9.22,9.317 13.84,20.368 13.84,33.188 v 23.43"
         style="fill:#ffffff;fill-opacity:1;fill-rule:nonzero;stroke:none"
         transform="matrix(0.13333333,0,0,-0.13333333,0,577.6)" /><path
         id="path27"
         d="m 1806.5,589.102 h -23.72 c 3.76,31.437 19.49,47.16 47.16,47.16 h 47.15 c 12.79,0 23.81,-4.66 33.03,-13.992 9.23,-9.309 13.83,-20.368 13.83,-33.168 v -11.571 c 0,-16.371 -15.14,-37.562 -45.45,-63.539 l -3.11,-2.543 c -30.3,-25.969 -45.45,-46.39 -45.45,-61.269 v -2.258 h 94.01 v -23.43 h -141.17 v 23.43 c 0,16.379 15.25,37.558 45.74,63.527 l 3.11,2.543 c 30.3,25.977 45.46,47.168 45.46,63.539 v 11.571 c 0,6.589 -2.36,12.187 -7.07,16.808 -4.7,4.61 -10.25,6.91 -16.65,6.91 h -23.43 c -14.5,0 -22.31,-7.898 -23.44,-23.718"
         style="fill:#ffffff;fill-opacity:1;fill-rule:nonzero;stroke:none"
         transform="matrix(0.13333333,0,0,-0.13333333,0,577.6)" /><path
         id="path28"
         d="m 1994.82,589.102 h -23.72 c 3.76,31.437 19.49,47.16 47.16,47.16 h 47.15 c 12.8,0 23.83,-4.66 33.05,-13.992 9.22,-9.309 13.82,-20.368 13.82,-33.168 v -11.571 c 0,-16.371 -15.15,-37.562 -45.45,-63.539 l -3.11,-2.543 c -30.3,-25.969 -45.46,-46.39 -45.46,-61.269 v -2.258 h 94.02 v -23.43 H 1971.1 v 23.43 c 0,16.379 15.27,37.558 45.76,63.527 l 3.1,2.543 c 30.3,25.977 45.45,47.168 45.45,63.539 v 11.571 c 0,6.589 -2.34,12.187 -7.05,16.808 -4.72,4.61 -10.26,6.91 -16.66,6.91 h -23.44 c -14.49,0 -22.3,-7.898 -23.44,-23.718"
         style="fill:#ffffff;fill-opacity:1;fill-rule:nonzero;stroke:none"
         transform="matrix(0.13333333,0,0,-0.13333333,0,577.6)" /><path
         id="path29"
         d="m 558.074,1653.66 h 74.961 v 74.51 c 0,10.47 -3.664,19.38 -10.992,26.71 -7.34,7.33 -16.238,11 -26.711,11 -10.176,0 -18.93,-3.67 -26.262,-11 -7.332,-7.33 -10.996,-16.24 -10.996,-26.71 z m -74.965,-187.19 v 261.7 c 0,20.65 7.407,38.3 22.223,52.97 14.813,14.66 32.387,21.99 52.742,21.99 h 74.961 c 20.348,0 37.86,-7.4 52.52,-22.21 14.66,-14.82 22,-32.41 22,-52.75 v -261.7 h -74.52 v 149.49 h -74.961 v -149.49 h -74.965"
         style="fill:#ffffff;fill-opacity:1;fill-rule:nonzero;stroke:none"
         transform="matrix(0.13333333,0,0,-0.13333333,0,577.6)" /><path
         id="path30"
         d="m 820.254,1591.57 h 24.902 c 6.996,0 12.946,2.45 17.848,7.35 4.894,4.9 7.348,10.76 7.348,17.55 v 24.91 c 0,6.99 -2.454,12.94 -7.348,17.85 -4.902,4.89 -10.852,7.34 -17.848,7.34 h -24.902 z m -50.098,-125.1 v 225 h 100.196 c 13.597,0 25.3,-4.95 35.101,-14.85 9.797,-9.89 14.703,-21.65 14.703,-35.24 v -13.51 c 0,-11.2 -3.804,-21.94 -11.402,-32.25 -7.602,-10.3 -20.399,-15.45 -38.402,-15.45 h 24.902 c 6.797,0 12.644,-2.45 17.547,-7.35 4.898,-4.9 7.355,-10.85 7.355,-17.85 v -88.5 h -49.804 v 75 c 0,6.8 -2.454,12.65 -7.348,17.55 -4.902,4.9 -10.852,7.36 -17.848,7.36 h -24.902 v -99.91 h -50.098"
         style="fill:#ffffff;fill-opacity:1;fill-rule:nonzero;stroke:none"
         transform="matrix(0.13333333,0,0,-0.13333333,0,577.6)" /><path
         id="path31"
         d="m 1120.25,1516.57 c -2,-33.4 -18.6,-50.1 -49.8,-50.1 h -50.1 c -13.6,0 -25.35,4.91 -35.248,14.7 -9.903,9.8 -14.848,21.6 -14.848,35.4 v 124.81 c 0,13.59 4.844,25.35 14.547,35.24 9.703,9.9 21.549,14.85 35.549,14.85 h 50.1 c 31.4,0 48,-16.7 49.8,-50.09 h -24.9 c -2,16.79 -10.3,25.19 -24.9,25.19 h -25.2 c -6.8,0 -12.65,-2.45 -17.55,-7.34 -4.9,-4.91 -7.35,-10.86 -7.35,-17.85 v -124.81 c 0,-6.8 2.45,-12.7 7.35,-17.69 4.9,-5 10.75,-7.5 17.55,-7.5 h 25.2 c 14.8,0 23.1,8.39 24.9,25.19 h 24.9"
         style="fill:#ffffff;fill-opacity:1;fill-rule:nonzero;stroke:none"
         transform="matrix(0.13333333,0,0,-0.13333333,0,577.6)" /><path
         id="path32"
         d="m 1170.35,1466.47 v 225 h 125.1 v -24.9 h -75 v -75 h 50.1 v -25.19 h -50.1 v -75 h 75 v -24.91 h -125.1"
         style="fill:#ffffff;fill-opacity:1;fill-rule:nonzero;stroke:none"
         transform="matrix(0.13333333,0,0,-0.13333333,0,577.6)" /><path
         id="path33"
         d="m 1345.25,1466.47 v 225 h 50.1 v -200.09 h 75 v -24.91 h -125.1"
         style="fill:#ffffff;fill-opacity:1;fill-rule:nonzero;stroke:none"
         transform="matrix(0.13333333,0,0,-0.13333333,0,577.6)" /><path
         id="path34"
         d="m 1520.15,1466.47 v 225 h 50.09 v -200.09 h 75 v -24.91 h -125.09"
         style="fill:#ffffff;fill-opacity:1;fill-rule:nonzero;stroke:none"
         transform="matrix(0.13333333,0,0,-0.13333333,0,577.6)" /><path
         id="path35"
         d="m 1745.14,1591.57 h 50.09 v 49.81 c 0,6.99 -2.44,12.94 -7.34,17.85 -4.9,4.89 -10.85,7.34 -17.85,7.34 -6.8,0 -12.65,-2.45 -17.55,-7.34 -4.9,-4.91 -7.35,-10.86 -7.35,-17.85 z m -50.1,-125.1 v 174.91 c 0,13.79 4.95,25.59 14.85,35.4 9.9,9.79 21.65,14.69 35.25,14.69 h 50.09 c 13.61,0 25.32,-4.95 35.11,-14.85 9.8,-9.89 14.7,-21.65 14.7,-35.24 v -174.91 h -49.81 v 99.91 h -50.09 v -99.91 h -50.1"
         style="fill:#ffffff;fill-opacity:1;fill-rule:nonzero;stroke:none"
         transform="matrix(0.13333333,0,0,-0.13333333,0,577.6)" /><path
         id="path36"
         d="m 490.586,2194.05 h -37.258 c -3.293,25.14 -15.109,37.71 -35.457,37.71 -13.176,0 -23.047,-3.15 -29.629,-9.43 -6.586,-6.29 -9.875,-15.71 -9.875,-28.28 0,-9.28 3.59,-18.11 10.774,-26.48 l 79.453,-88.88 c 14.66,-16.46 21.992,-34.12 21.992,-52.97 v -18.41 c 0,-20.35 -7.332,-37.93 -21.992,-52.74 -14.668,-14.82 -32.321,-22.22 -52.969,-22.22 h -37.258 c -24.844,0 -43.543,6.21 -56.113,18.63 -12.566,12.42 -18.852,31.2 -18.852,56.33 h 37.707 c 0,-2.69 0,-4.78 0,-6.28 0,-10.17 3.887,-17.96 11.672,-23.34 7.782,-5.39 16.305,-8.08 25.586,-8.08 13.164,0 22.668,3.21 28.504,9.65 5.832,6.43 8.754,15.78 8.754,28.05 0,9.58 -3.59,18.41 -10.773,26.49 l -79.454,88.87 c -14.668,16.17 -21.996,33.82 -21.996,52.97 v 18.41 c 0,20.34 7.328,37.93 21.996,52.75 14.661,14.81 32.321,22.21 52.969,22.21 h 37.258 c 46.977,0 71.969,-24.99 74.961,-74.96"
         style="fill:#ffffff;fill-opacity:1;fill-rule:nonzero;stroke:none"
         transform="matrix(0.13333333,0,0,-0.13333333,0,577.6)" /><path
         id="path37"
         d="m 602.84,2057.45 h 24.902 c 7,0 12.946,2.45 17.848,7.35 4.898,4.9 7.348,10.76 7.348,17.55 v 24.9 c 0,7 -2.45,12.95 -7.348,17.86 -4.902,4.89 -10.848,7.34 -17.848,7.34 H 602.84 Z m -50.098,-125.1 v 225 h 100.196 c 13.601,0 25.304,-4.95 35.105,-14.85 9.793,-9.89 14.699,-21.65 14.699,-35.25 v -24.9 c 0,-13.6 -4.906,-25.35 -14.699,-35.25 -9.801,-9.89 -21.504,-14.85 -35.105,-14.85 H 602.84 v -99.9 h -50.098"
         style="fill:#ffffff;fill-opacity:1;fill-rule:nonzero;stroke:none"
         transform="matrix(0.13333333,0,0,-0.13333333,0,577.6)" /><path
         id="path38"
         d="m 802.938,2107.25 v -124.8 c 0,-6.8 2.449,-12.71 7.351,-17.7 4.895,-5 10.75,-7.5 17.551,-7.5 7,0 12.945,2.5 17.848,7.5 4.898,4.99 7.347,10.9 7.347,17.7 v 124.8 c 0,7 -2.449,12.95 -7.347,17.86 -4.903,4.89 -10.848,7.34 -17.848,7.34 -6.801,0 -12.656,-2.45 -17.551,-7.34 -4.902,-4.91 -7.351,-10.86 -7.351,-17.86 z m 0,50.1 h 50.097 c 13.602,0 25.305,-4.95 35.106,-14.85 9.793,-9.89 14.699,-21.65 14.699,-35.25 v -124.8 c 0,-13.6 -4.906,-25.35 -14.699,-35.24 -9.801,-9.91 -21.504,-14.86 -35.106,-14.86 h -50.097 c -13.602,0 -25.348,4.9 -35.247,14.7 -9.902,9.79 -14.851,21.6 -14.851,35.4 v 124.8 c 0,13.8 4.949,25.6 14.851,35.4 9.899,9.8 21.645,14.7 35.247,14.7"
         style="fill:#ffffff;fill-opacity:1;fill-rule:nonzero;stroke:none"
         transform="matrix(0.13333333,0,0,-0.13333333,0,577.6)" /><path
         id="path39"
         d="m 1003.04,2057.45 h 24.9 c 7,0 12.94,2.45 17.85,7.35 4.89,4.9 7.34,10.76 7.34,17.55 v 24.9 c 0,7 -2.45,12.95 -7.34,17.86 -4.91,4.89 -10.85,7.34 -17.85,7.34 h -24.9 z m -50.102,-125.1 v 225 h 100.192 c 13.6,0 25.31,-4.95 35.11,-14.85 9.79,-9.89 14.7,-21.65 14.7,-35.25 v -13.5 c 0,-11.2 -3.8,-21.94 -11.4,-32.25 -7.6,-10.3 -20.4,-15.45 -38.41,-15.45 h 24.91 c 6.79,0 12.64,-2.45 17.55,-7.35 4.89,-4.9 7.35,-10.85 7.35,-17.85 v -88.5 h -49.81 v 75 c 0,6.8 -2.45,12.65 -7.34,17.55 -4.91,4.9 -10.85,7.35 -17.85,7.35 h -24.9 v -99.9 h -50.102"
         style="fill:#ffffff;fill-opacity:1;fill-rule:nonzero;stroke:none"
         transform="matrix(0.13333333,0,0,-0.13333333,0,577.6)" /><path
         id="path40"
         d="m 1178.23,1932.35 v 200.1 h -50.1 v 24.9 h 150 v -24.9 h -50.09 v -200.1 h -49.81"
         style="fill:#ffffff;fill-opacity:1;fill-rule:nonzero;stroke:none"
         transform="matrix(0.13333333,0,0,-0.13333333,0,577.6)" /><path
         id="path41"
         d="m 1328.23,1932.35 v 225 h 49.81 v -225 h -49.81"
         style="fill:#ffffff;fill-opacity:1;fill-rule:nonzero;stroke:none"
         transform="matrix(0.13333333,0,0,-0.13333333,0,577.6)" /><path
         id="path42"
         d="m 1553.23,2157.35 h 49.81 v -139.5 c 0,-23.4 -8.36,-43.5 -25.06,-60.3 -16.7,-16.8 -36.75,-25.2 -60.14,-25.2 h -64.8 v 225 h 50.09 v -200.1 h 24.91 c 6.99,0 12.94,2.5 17.84,7.5 4.9,4.99 7.35,10.9 7.35,17.7 v 174.9"
         style="fill:#ffffff;fill-opacity:1;fill-rule:nonzero;stroke:none"
         transform="matrix(0.13333333,0,0,-0.13333333,0,577.6)" /><path
         id="path43"
         d="m 1703.23,2057.45 h 50.1 v 49.8 c 0,7 -2.45,12.95 -7.34,17.86 -4.91,4.89 -10.86,7.34 -17.86,7.34 -6.8,0 -12.65,-2.45 -17.54,-7.34 -4.91,-4.91 -7.36,-10.86 -7.36,-17.86 z m -50.1,-125.1 v 174.9 c 0,13.8 4.95,25.6 14.85,35.4 9.9,9.8 21.65,14.7 35.25,14.7 h 50.1 c 13.6,0 25.3,-4.95 35.1,-14.85 9.8,-9.89 14.7,-21.65 14.7,-35.25 v -174.9 h -49.8 v 99.9 h -50.1 v -99.9 h -50.1"
         style="fill:#ffffff;fill-opacity:1;fill-rule:nonzero;stroke:none"
         transform="matrix(0.13333333,0,0,-0.13333333,0,577.6)" /><path
         id="path44"
         d="m 320.551,2727.82 h 74.515 v -261.7 c 0,-20.35 -7.336,-37.93 -21.996,-52.75 -14.664,-14.81 -32.172,-22.21 -52.519,-22.21 H 245.59 c -20.356,0 -37.93,7.33 -52.742,21.99 -14.817,14.66 -22.223,32.32 -22.223,52.97 v 261.7 h 74.965 v -261.7 c 0,-10.18 3.664,-19.01 10.996,-26.49 7.328,-7.48 16.086,-11.22 26.262,-11.22 10.472,0 19.367,3.74 26.707,11.22 7.328,7.48 10.996,16.31 10.996,26.49 v 261.7"
         style="fill:#ffffff;fill-opacity:1;fill-rule:nonzero;stroke:none"
         transform="matrix(0.13333333,0,0,-0.13333333,0,577.6)" /><path
         id="path45"
         d="m 457.672,2391.16 v 225 h 11.699 l 138.301,-125.1 v 125.1 h 25.195 v -225 h -11.398 l -138.602,125.09 v -125.09 h -25.195"
         style="fill:#ffffff;fill-opacity:1;fill-rule:nonzero;stroke:none"
         transform="matrix(0.13333333,0,0,-0.13333333,0,577.6)" /><path
         id="path46"
         d="m 707.867,2391.16 v 225 h 49.805 v -225 h -49.805"
         style="fill:#ffffff;fill-opacity:1;fill-rule:nonzero;stroke:none"
         transform="matrix(0.13333333,0,0,-0.13333333,0,577.6)" /><path
         id="path47"
         d="m 882.77,2566.06 v -124.81 c 0,-6.79 2.445,-12.7 7.347,-17.69 4.899,-5 10.75,-7.5 17.555,-7.5 6.996,0 12.941,2.5 17.844,7.5 4.898,4.99 7.351,10.9 7.351,17.69 v 124.81 c 0,6.99 -2.453,12.95 -7.351,17.85 -4.903,4.89 -10.848,7.34 -17.844,7.34 -6.805,0 -12.656,-2.45 -17.555,-7.34 -4.902,-4.9 -7.347,-10.86 -7.347,-17.85 z m 0,50.1 h 50.097 c 13.598,0 25.301,-4.96 35.102,-14.86 9.793,-9.89 14.703,-21.65 14.703,-35.24 v -124.81 c 0,-13.6 -4.91,-25.35 -14.703,-35.24 -9.801,-9.9 -21.504,-14.85 -35.102,-14.85 H 882.77 c -13.606,0 -25.352,4.9 -35.25,14.69 -9.903,9.8 -14.848,21.6 -14.848,35.4 v 124.81 c 0,13.8 4.945,25.59 14.848,35.4 9.898,9.79 21.644,14.7 35.25,14.7"
         style="fill:#ffffff;fill-opacity:1;fill-rule:nonzero;stroke:none"
         transform="matrix(0.13333333,0,0,-0.13333333,0,577.6)" /><path
         id="path48"
         d="m 1032.77,2391.16 v 225 h 11.7 l 138.3,-125.1 v 125.1 h 25.19 v -225 h -11.39 l -138.61,125.09 v -125.09 h -25.19"
         style="fill:#ffffff;fill-opacity:1;fill-rule:nonzero;stroke:none"
         transform="matrix(0.13333333,0,0,-0.13333333,0,577.6)" /><path
         id="path49"
         d="m 1257.77,2391.16 v 225 h 125.1 v -24.91 h -75 v -75 h 50.09 v -25.19 h -50.09 v -75 h 75 v -24.9 h -125.1"
         style="fill:#ffffff;fill-opacity:1;fill-rule:nonzero;stroke:none"
         transform="matrix(0.13333333,0,0,-0.13333333,0,577.6)" /></g></g></svg>
